<svg xmlns="http://www.w3.org/2000/svg" xmlns:xlink="http://www.w3.org/1999/xlink" width="150.636" height="287.093" viewBox="0 0 150.636 287.093">
  <defs>
    <clipPath id="clip-path">
      <rect id="Rectangle_55" data-name="Rectangle 55" width="275.802" height="122.478" fill="#fff"/>
    </clipPath>
  </defs>
  <g id="Group_52425" data-name="Group 52425" transform="translate(-884.682 -1632.453)">
    <g id="Group_52420" data-name="Group 52420" transform="translate(1035.318 1645.256) rotate(96)">
      <g id="Mask_Group_52419" data-name="Mask Group 52419" transform="translate(0 0)" clip-path="url(#clip-path)">
        <path id="Path_394" data-name="Path 394" d="M127.588,23.048c-2.479.667-4.393,1.251-6.338,1.688-2.24.5-4.224-.083-5.195-2.261-1.032-2.317.3-3.942,2.186-5.134,1.521-.96,3.106-1.819,5.749-3.354-3.741-.922-6.281-1.494-8.792-2.186a22.07,22.07,0,0,1-4.05-1.472C108.913,9.2,107.5,7.467,108.57,4.842c.958-2.36,3.016-2.454,5.208-2.082,6.477,1.1,12.957,2.193,19.445,3.221,6.4,1.012,7.965,3.6,6.286,9.824-1.931,7.144-3.592,14.365-5.362,21.555-.293,1.2-.417,2.445-.818,3.6a4.191,4.191,0,0,1-5.339,2.979,4.011,4.011,0,0,1-3.2-4.64c.417-3.674,1.237-7.3,1.882-10.949.277-1.562.543-3.126.92-5.3" transform="translate(135.665 3.254)" fill="#fff"/>
        <path id="Path_395" data-name="Path 395" d="M21.384,29.461c-.577,2.727-.917,4.521-1.343,6.292-.6,2.484-2.015,4.118-4.764,3.9-2.348-.187-3.8-2.416-3.57-5.562.187-2.628.611-5.24.949-8.032-3.383-1.535-6.374-2.874-9.349-4.248-2.24-1.032-3.913-2.49-3.1-5.267C.881,14.255,3.268,13.4,6.466,14.4c2.49.78,4.893,1.839,7.794,2.95.563-2.686.949-4.681,1.406-6.658a24.658,24.658,0,0,1,1.161-4.156c.938-2.186,2.941-3.4,4.979-2.337a5.559,5.559,0,0,1,2.457,4.3c-.189,3.865-1.1,7.7-1.8,12.026,4.3,1.557,8.352,2.982,12.369,4.485,4.465,1.67,6.065,3.746,5.084,6.432C38.925,34.151,36.387,34.8,31.9,33.3c-3.3-1.1-6.534-2.373-10.521-3.836" transform="translate(0 4.776)" fill="#07e2d7"/>
        <path id="Path_396" data-name="Path 396" d="M107.1,48.033c-.3.71-.491,2.369-1.424,3.2-3.813,3.405-7.784,6.649-11.839,9.77-1.954,1.5-4.235,1.733-6.072-.354-1.569-1.783-.9-4.165,1.62-6.295,3.606-3.043,7.108-6.229,10.888-9.04,2.988-2.22,6.252-1.066,6.827,2.716" transform="translate(108.982 55.408)" fill="#fff"/>
        <path id="Path_397" data-name="Path 397" d="M54.466,32.811c-.212-2.443-.852-4.956-.478-7.307a5.732,5.732,0,0,1,3.135-3.861c2.164-.744,4.066.739,4.458,3.063a110.922,110.922,0,0,1,1.573,12.77c.124,2.378-1.233,4.5-3.973,4.6-2.795.1-3.827-1.868-4.109-4.381-.183-1.627-.462-3.241-.7-4.861l.092-.018" transform="translate(67.544 26.894)" fill="#fff"/>
        <path id="Path_398" data-name="Path 398" d="M62.3,23.063c.482,4-.784,6.567-2.988,6.953-2.8.491-4.021-1.282-4.843-3.624-1.084-3.085-2.285-6.132-3.446-9.191-.9-2.382-.748-4.571,1.767-5.749,2.56-1.2,4.46.214,5.535,2.4,1.62,3.293,2.925,6.739,3.976,9.209" transform="translate(63.34 13.807)" fill="#fff"/>
        <path id="Path_399" data-name="Path 399" d="M106.321,21.971a3.82,3.82,0,0,1,4.6,4.147,75.34,75.34,0,0,1-2.333,12.673,4.537,4.537,0,0,1-3.638,2.439c-1.249-.083-3.311-1.711-3.421-2.819a24.231,24.231,0,0,1,3.153-15.328c.374-.618,1.3-.895,1.636-1.111" transform="translate(127.103 27.481)" fill="#fff"/>
        <path id="Path_400" data-name="Path 400" d="M60.077,35.205c.674.476,2.261,1.113,3.1,2.285A81.381,81.381,0,0,1,68.3,45.906c1.143,2.087,1.693,4.352-.651,6.074-2.371,1.744-4.505.622-5.858-1.332a56.55,56.55,0,0,1-5.508-9.572c-1.215-2.806.343-5.328,3.8-5.871" transform="translate(70.051 44.139)" fill="#fff"/>
        <path id="Path_401" data-name="Path 401" d="M102.773,51.646c-2.747.584-5.195-1.533-4.309-4.332A74.591,74.591,0,0,1,103.6,35.442c.46-.883,2.572-1.551,3.669-1.282A4.922,4.922,0,0,1,110.106,37c1.1,3.025-3.318,12.786-6.166,14.244a8.212,8.212,0,0,1-1.167.406" transform="translate(123.218 42.753)" fill="#fff"/>
        <path id="Path_402" data-name="Path 402" d="M109.3,27.272c-2.718.279-5.242-2.4-3.813-4.717a47.352,47.352,0,0,1,8.56-10.277c2.134-1.92,5.607.473,5.537,3.378-.063,2.653-7.769,11.357-10.284,11.616" transform="translate(131.733 14.527)" fill="#fff"/>
        <path id="Path_403" data-name="Path 403" d="M40.276,6.7c-.453-2.454,1.235-4.309,3.922-4.311,3.309,0,10.807,5.756,11.816,9.069.951,3.13-1.409,6.16-4.118,4.724-4.075-2.161-7.541-5.47-11.233-8.332C40.4,7.646,40.4,7.1,40.276,6.7" transform="translate(50.404 2.999)" fill="#fff"/>
        <path id="Path_404" data-name="Path 404" d="M79.667,53.4c.214,3-1.571,4.834-4.375,4.417a17.737,17.737,0,0,1-12.031-6.8,4.691,4.691,0,0,1,.156-4.42A4.558,4.558,0,0,1,67.6,45.4a78.409,78.409,0,0,1,10.3,5.506c.926.563,1.373,1.913,1.767,2.5" transform="translate(78.711 56.739)" fill="#fff"/>
        <path id="Path_405" data-name="Path 405" d="M28.141,2.831c1.629,1.1,3.748,1.805,4.566,3.248,1.183,2.085-.252,3.946-2.33,4.924a57.551,57.551,0,0,1-9.047,3.834,5.718,5.718,0,0,1-4.767-1.361c-1.708-1.819-.631-4.1,1.217-5.249,3.106-1.927,6.484-3.412,10.361-5.4" transform="translate(19.693 3.55)" fill="#fff"/>
        <path id="Path_406" data-name="Path 406" d="M45.6,4.566c.054,2.723-1.143,4.521-3.493,4.46A67.357,67.357,0,0,1,30.59,7.667c-1.016-.207-2.272-1.936-2.4-3.079a4.636,4.636,0,0,1,1.715-3.5c2.79-2.116,12.166-.9,14.528,1.666A11.34,11.34,0,0,1,45.6,4.566" transform="translate(35.328 0.001)" fill="#fff"/>
        <path id="Path_407" data-name="Path 407" d="M84.767,59.092a49.771,49.771,0,0,1-6.714-.755c-2.211-.5-3.768-2.36-2.88-4.566a5.919,5.919,0,0,1,3.919-2.959,33.469,33.469,0,0,1,7.933-.02c2.432.158,4.487,1.12,4.575,3.96.092,2.946-2.026,3.694-4.44,3.994-.406.05-.809.115-2.393.347" transform="translate(93.931 63.387)" fill="#fff"/>
      </g>
    </g>
    <path id="Path_444" data-name="Path 444" d="M179.068,175.789a25.007,25.007,0,1,0,30.47,0,25.017,25.017,0,0,0-30.47,0" transform="translate(756.14 1622.419)" fill="#ffd41f"/>
    <path id="Path_445" data-name="Path 445" d="M179.068,175.789a25.007,25.007,0,1,0,30.47,0,25.017,25.017,0,0,0-30.47,0" transform="translate(768.753 1517.419)" fill="#db1239"/>
  </g>
</svg>
