<svg xmlns="http://www.w3.org/2000/svg" xmlns:xlink="http://www.w3.org/1999/xlink" width="109.554" height="122.185" viewBox="0 0 109.554 122.185">
  <defs>
    <clipPath id="clip-path">
      <rect id="Rectangle_54" data-name="Rectangle 54" width="105.241" height="62.284" fill="#fff"/>
    </clipPath>
  </defs>
  <g id="arrowHero" transform="translate(0 88.263) rotate(-57)" clip-path="url(#clip-path)">
    <path id="Path_377" data-name="Path 377" d="M86.132,25.326c.526,1.413.795,2.133,1.065,2.854.771,2.058,1.581,2.739,2.842,2.39s1.6-1.471,1.055-3.511c-.246-.932-.483-1.867-.9-3.472,1.446,1.036,2.309,1.68,3.2,2.284.574.39,1.177.987,1.787,1.013a3.582,3.582,0,0,0,2.351-.7c.771-.686.409-1.658-.214-2.418a3.7,3.7,0,0,0-.664-.6c-2.407-1.784-4.789-3.6-7.239-5.327-1.832-1.287-2.733-1.132-3.924.795-1.995,3.224-3.869,6.522-5.77,9.8-.656,1.134-.863,2.3.415,3.164,1.02.691,2.326.216,3.225-1.238.885-1.431,1.63-2.949,2.77-5.04" transform="translate(-79.203 1.562)" fill="#fff"/>
    <path id="Path_378" data-name="Path 378" d="M36.029,45.772c.156.263.329.425.344.6.1,1.179.454,2.249,1.794,2.369,1.462.132,2.054-.964,2.443-2.161.554-1.7,1.107-3.4,1.621-5.114a2.408,2.408,0,0,0,.171-1.45c-.335-.746-.809-1.777-1.427-1.944-.567-.153-1.579.53-2.066,1.116a9.971,9.971,0,0,0-1.1,2.613c-1.3-.216-2.541-.469-3.789-.613-1.046-.119-2.05.068-2.355,1.288a1.876,1.876,0,0,0,1.337,2.34c.921.359,1.888.6,3.021.956" transform="translate(28.274 3.493)" fill="#fff"/>
    <path id="Path_379" data-name="Path 379" d="M4.269,20.728a35.606,35.606,0,0,0,.025,3.607c.158,1.655.967,2.447,2.164,2.321,1.378-.145,1.828-1.132,1.827-2.318,0-2.291-.072-4.582-.188-6.871a4.182,4.182,0,0,0-.544-1.685c-.467-.87-1.3-1.447-2.213-.976a2.632,2.632,0,0,0-1.227,1.771,27.452,27.452,0,0,0,.156,4.15" transform="translate(92.516 1.344)" fill="#fff"/>
    <path id="Path_380" data-name="Path 380" d="M22.133,45.056c1.888-.6,3.808-1.127,5.652-1.843a1.91,1.91,0,0,0,1.21-2.685c-.549-1.273-1.63-1.174-2.81-.87-1.729.443-3.489.785-5.252,1.078-1.245.206-2.457.391-2.569,1.962-.086,1.213.971,1.962,2.775,2.069.3.019.6,0,.9,0,.032.095.062.19.093.286" transform="translate(56.007 3.623)" fill="#fff"/>
    <path id="Path_381" data-name="Path 381" d="M41.559,12.459c1.111.1,2.4.246,3.687.336,1.055.074,2.06-.1,2.352-1.317a1.84,1.84,0,0,0-1.616-2.414A37.96,37.96,0,0,0,39.2,8.733a2.1,2.1,0,0,0-1.928,2.533c.4,1.3,1.415,1.533,2.623,1.353.491-.073.989-.1,1.668-.16" transform="translate(16.955 0.799)" fill="#fff"/>
    <path id="Path_382" data-name="Path 382" d="M11.956,28.3a7.867,7.867,0,0,0-1.52,1.546C9.47,31.474,8.65,33.188,7.8,34.88c-.222.44-.55.976-.462,1.389a3.378,3.378,0,0,0,.968,1.958,1.968,1.968,0,0,0,1.865-.266A13.253,13.253,0,0,0,14.09,30.4c.189-1.09-.4-1.932-2.133-2.1" transform="translate(83.123 2.598)" fill="#fff"/>
    <path id="Path_383" data-name="Path 383" d="M76.459,34.92a6.128,6.128,0,0,0,.526,1.619c1.242,1.689,2.514,3.361,3.856,4.972a1.7,1.7,0,0,0,2.421.383,1.76,1.76,0,0,0,.554-2.623,56.921,56.921,0,0,0-3.97-5.258,2.594,2.594,0,0,0-2.143-.485c-.506.11-.858.929-1.244,1.391" transform="translate(-62.423 3.074)" fill="#fff"/>
    <path id="Path_384" data-name="Path 384" d="M48.7,18.236c.09,1.391,1.825,2.346,2.841,1.351a30.849,30.849,0,0,0,4.04-5.116,2.207,2.207,0,0,0-.5-2.076,2.168,2.168,0,0,0-2.1-.123c-1.521,1.686-2.834,3.56-4.2,5.383-.1.138-.057.385-.079.582" transform="translate(-3.62 1.107)" fill="#fff"/>
    <path id="Path_385" data-name="Path 385" d="M44.871,36.381a6.184,6.184,0,0,0,.966,1.482c1.024.947,2.148,1.787,3.257,2.635.795.607,1.818.822,2.4-.023.424-.615.688-2.026.332-2.372a24.056,24.056,0,0,0-4.881-3.774c-1.056-.593-2.186.533-2.074,2.054" transform="translate(4.265 3.137)" fill="#fff"/>
    <path id="Path_386" data-name="Path 386" d="M38.441,55.752A1.785,1.785,0,0,0,40.518,57.6c1.554-.05,4.7-2.829,4.982-4.361.255-1.415-1.2-2.786-2.39-2.048A32.88,32.88,0,0,0,38.754,54.8c-.251.225-.248.734-.313.951" transform="translate(17.742 4.681)" fill="#fff"/>
    <path id="Path_387" data-name="Path 387" d="M32.695,27.625a6.411,6.411,0,0,0-.248-2.2c-.32-.608-1.025-1.364-1.6-1.392A2.183,2.183,0,0,0,29.084,25.2a22.585,22.585,0,0,0-.4,5.333c.025.558,1.007,1.522,1.511,1.5a2.736,2.736,0,0,0,2.017-1.3,10.622,10.622,0,0,0,.479-3.1" transform="translate(41.25 2.207)" fill="#fff"/>
    <path id="Path_388" data-name="Path 388" d="M34.634,19.66c.442-.552,1.114-1.054,1.307-1.7.555-1.848-1.9-5.136-3.853-5.327a1.783,1.783,0,0,0-1.926,2.511,30.16,30.16,0,0,0,3.079,3.961c.219.259.705.292,1.393.552" transform="translate(36.526 1.16)" fill="#fff"/>
    <path id="Path_389" data-name="Path 389" d="M62.654,51.344c.27.382.54,1.108,1.061,1.431a12.968,12.968,0,0,0,3.5,1.618,2.2,2.2,0,0,0,1.984-.732c.276-.657.171-2.017-.286-2.335a14.11,14.11,0,0,0-4.253-1.979c-1.118-.309-1.815.556-2,2" transform="translate(-32.513 4.525)" fill="#fff"/>
    <path id="Path_390" data-name="Path 390" d="M55.423,56.807c1.073,0,1.568.025,2.059-.005,1.133-.069,2.043-.67,1.879-1.794a2.646,2.646,0,0,0-1.551-1.783,12.3,12.3,0,0,0-3.8-.283,1.684,1.684,0,0,0-1.772,1.649,1.9,1.9,0,0,0,1.708,2.065,9.01,9.01,0,0,0,1.48.152" transform="translate(-11.164 4.858)" fill="#fff"/>
    <path id="Path_391" data-name="Path 391" d="M51.7,24.173a20.431,20.431,0,0,0,1.3,3.9,2.72,2.72,0,0,0,2.091,1.163,1.735,1.735,0,0,0,1.475-2.193,21.256,21.256,0,0,0-.989-3.409c-.373-1.084-1.241-1.711-2.293-1.242-.669.3-1.077,1.182-1.583,1.783" transform="translate(-7.807 2.041)" fill="#fff"/>
    <path id="Path_392" data-name="Path 392" d="M71.416,44.143a1.59,1.59,0,0,0-1.472,2.3,9.25,9.25,0,0,0,2.709,2.987c1.013.71,2.437-.341,2.484-1.615.055-1.475-2.245-3.744-3.721-3.671" transform="translate(-46.05 4.053)" fill="#fff"/>
    <path id="Path_393" data-name="Path 393" d="M6.531,9.774c1.152,1.024,2.092,1.9,3.073,2.721a1.958,1.958,0,0,0,2.724.182,1.992,1.992,0,0,0,.216-2.956,35.665,35.665,0,0,0-2.919-3.01c.808-.884,1.625-1.706,2.358-2.6.982-1.19,1.021-2.4.193-3.218S10.234.192,9,1.281C8.18,2,7.426,2.8,6.468,3.739c-.632-.518-1.242-.975-1.8-1.486C4.076,1.716,3.57,1.084,2.963.571A1.707,1.707,0,0,0,.317.678a2.679,2.679,0,0,0-.064,2.4A33.707,33.707,0,0,0,3.365,6.9c-.728.89-1.441,1.7-2.082,2.558-.94,1.265-.98,2.51-.084,3.209,1.113.867,2.059.306,2.912-.5.718-.681,1.408-1.393,2.421-2.4" transform="translate(92.144 0)" fill="#fff"/>
  </g>
</svg>
