<svg xmlns="http://www.w3.org/2000/svg" xmlns:xlink="http://www.w3.org/1999/xlink" width="235.164" height="302.394" viewBox="0 0 235.164 302.394">
  <defs>
    <clipPath id="clip-path">
      <rect id="Rectangle_57" data-name="Rectangle 57" width="265.678" height="157.234" fill="#fff"/>
    </clipPath>
  </defs>
  <g id="Group_52427" data-name="Group 52427" transform="translate(-842.418 -3344.327)">
    <g id="Group_52424" data-name="Group 52424" transform="translate(1077.582 3395.517) rotate(109)">
      <g id="Group_52423" data-name="Group 52423" transform="translate(0 0)" clip-path="url(#clip-path)">
        <path id="Path_427" data-name="Path 427" d="M109.087,38.008c-1.328,3.567-2.007,5.386-2.687,7.2-1.946,5.2-3.991,6.915-7.174,6.033s-4.027-3.713-2.663-8.864c.62-2.354,1.218-4.713,2.266-8.765-3.649,2.616-5.829,4.242-8.076,5.766-1.45.984-2.971,2.492-4.512,2.558a9.043,9.043,0,0,1-5.934-1.758c-1.946-1.731-1.034-4.187.54-6.105a9.346,9.346,0,0,1,1.676-1.516c6.077-4.5,12.089-9.1,18.274-13.448,4.625-3.25,6.9-2.858,9.906,2.007,5.036,8.139,9.768,16.466,14.567,24.748,1.656,2.864,2.177,5.8-1.047,7.988-2.574,1.745-5.871.546-8.142-3.126-2.235-3.613-4.115-7.445-6.993-12.723" transform="translate(139.097 29.871)" fill="#fff"/>
        <path id="Path_428" data-name="Path 428" d="M47.855,57.545c-.394.664-.83,1.072-.868,1.513-.259,2.977-1.147,5.678-4.528,5.981-3.691.334-5.184-2.434-6.168-5.455C34.893,55.29,33.5,51,32.2,46.674c-.356-1.182-.868-2.7-.433-3.66.846-1.883,2.042-4.487,3.6-4.909,1.43-.386,3.985,1.337,5.215,2.817,1.353,1.626,1.758,4.041,2.767,6.6,3.294-.546,6.414-1.185,9.564-1.546,2.64-.3,5.176.171,5.945,3.252.728,2.911-.758,4.887-3.376,5.907-2.326.907-4.766,1.521-7.626,2.414" transform="translate(55.492 66.825)" fill="#fff"/>
        <path id="Path_429" data-name="Path 429" d="M14.2,30.011a89.886,89.886,0,0,1-.063,9.107c-.4,4.178-2.442,6.177-5.463,5.86-3.478-.367-4.614-2.858-4.611-5.851.008-5.783.182-11.568.474-17.345a10.558,10.558,0,0,1,1.373-4.253c1.18-2.2,3.288-3.652,5.587-2.464a6.645,6.645,0,0,1,3.1,4.471c.35,3.205-.187,6.51-.394,10.476" transform="translate(7.143 25.71)" fill="#fff"/>
        <path id="Path_430" data-name="Path 430" d="M36.176,53.581c-4.766-1.527-9.614-2.844-14.269-4.653-2.889-1.122-4.393-3.682-3.054-6.778,1.386-3.214,4.115-2.963,7.095-2.2,4.366,1.119,8.809,1.982,13.257,2.72,3.142.521,6.2.987,6.485,4.953.218,3.062-2.45,4.953-7.006,5.223-.755.047-1.516.008-2.274.008-.08.24-.157.48-.234.722" transform="translate(32.242 69.309)" fill="#fff"/>
        <path id="Path_431" data-name="Path 431" d="M52.629,18.2c-2.806.262-6.053.62-9.308.849-2.663.187-5.2-.259-5.937-3.324a4.645,4.645,0,0,1,4.079-6.094,95.829,95.829,0,0,1,17.13-.835c3.484.185,5.683,3.765,4.867,6.394-1.017,3.28-3.572,3.87-6.62,3.415-1.24-.185-2.5-.245-4.211-.405" transform="translate(65.332 15.27)" fill="#fff"/>
        <path id="Path_432" data-name="Path 432" d="M12.793,28.3c.94.929,2.806,2.166,3.837,3.9,2.439,4.107,4.509,8.434,6.659,12.706.56,1.111,1.389,2.464,1.166,3.506-.386,1.792-1.105,3.972-2.445,4.942-.959.695-3.713.267-4.708-.673a33.457,33.457,0,0,1-9.895-19.1c-.477-2.751,1.014-4.879,5.386-5.289" transform="translate(12.859 49.704)" fill="#fff"/>
        <path id="Path_433" data-name="Path 433" d="M95.965,37.118c-.543,1.747-.631,3.139-1.328,4.087C91.5,45.469,88.289,49.689,84.9,53.757c-1.593,1.913-3.886,2.522-6.111.967-2.428-1.7-3.073-4.187-1.4-6.62A143.687,143.687,0,0,1,87.415,34.83c1.023-1.169,3.724-1.588,5.41-1.224,1.276.278,2.166,2.346,3.139,3.511" transform="translate(134.279 58.797)" fill="#fff"/>
        <path id="Path_434" data-name="Path 434" d="M66.341,27.661c-.226,3.511-4.608,5.923-7.172,3.409a77.877,77.877,0,0,1-10.2-12.916c-.722-1.094.11-4.245,1.268-5.24,1.119-.962,4.5-1.193,5.295-.311,3.839,4.256,7.155,8.988,10.609,13.588.259.347.143.973.2,1.469" transform="translate(85.53 21.169)" fill="#fff"/>
        <path id="Path_435" data-name="Path 435" d="M62.843,39.757A15.61,15.61,0,0,1,60.4,43.5c-2.585,2.39-5.421,4.512-8.222,6.651-2.007,1.532-4.589,2.075-6.061-.058-1.069-1.552-1.736-5.116-.838-5.989a60.727,60.727,0,0,1,12.323-9.528c2.665-1.5,5.518,1.345,5.237,5.184" transform="translate(78.79 60.005)" fill="#fff"/>
        <path id="Path_436" data-name="Path 436" d="M56.334,63.019c-.356,3.622-2.348,4.763-5.242,4.666-3.922-.127-11.877-7.141-12.577-11.008-.645-3.572,3.037-7.034,6.033-5.171,4.008,2.494,7.445,5.931,10.995,9.112.634.568.626,1.852.791,2.4" transform="translate(67.511 89.542)" fill="#fff"/>
        <path id="Path_437" data-name="Path 437" d="M28.665,33.1c.187-2.114-.132-4.118.626-5.551.808-1.535,2.588-3.443,4.027-3.514,1.5-.074,4.209,1.632,4.462,2.933a57.016,57.016,0,0,1,1,13.464c-.063,1.408-2.541,3.842-3.815,3.779a6.906,6.906,0,0,1-5.091-3.294c-1.1-2.4-.9-5.4-1.21-7.817" transform="translate(50.342 42.209)" fill="#fff"/>
        <path id="Path_438" data-name="Path 438" d="M33.445,30.385c-1.116-1.395-2.811-2.66-3.3-4.286-1.4-4.666,4.8-12.965,9.727-13.448,3.658-.361,6.689,3.244,4.862,6.339-2.131,3.611-5.047,6.769-7.773,10-.554.653-1.781.736-3.517,1.395" transform="translate(52.59 22.175)" fill="#fff"/>
        <path id="Path_439" data-name="Path 439" d="M79.552,54.484c-.681.965-1.364,2.8-2.679,3.613a32.737,32.737,0,0,1-8.828,4.085c-1.5.386-4.515-.673-5.008-1.847-.7-1.659-.433-5.091.722-5.9a35.62,35.62,0,0,1,10.735-5c2.822-.78,4.581,1.4,5.058,5.041" transform="translate(110.035 86.556)" fill="#fff"/>
        <path id="Path_440" data-name="Path 440" d="M62.22,62.736c-2.709,0-3.958.063-5.2-.014-2.861-.174-5.157-1.692-4.743-4.528a6.679,6.679,0,0,1,3.917-4.5,31.061,31.061,0,0,1,9.6-.714c2.4.083,4.327,1.458,4.473,4.162.163,2.955-1.59,4.628-4.311,5.212a22.745,22.745,0,0,1-3.737.383" transform="translate(91.728 92.936)" fill="#fff"/>
        <path id="Path_441" data-name="Path 441" d="M64.066,27.131c-1.182,3.782-1.714,7.108-3.28,9.842a6.866,6.866,0,0,1-5.278,2.935c-2.781-.165-4.17-2.809-3.724-5.537a53.657,53.657,0,0,1,2.5-8.6c.943-2.737,3.134-4.319,5.788-3.137,1.69.752,2.718,2.985,4,4.5" transform="translate(90.8 39.047)" fill="#fff"/>
        <path id="Path_442" data-name="Path 442" d="M79.146,44.146c2.982.146,5.242,3.046,3.715,5.8a23.35,23.35,0,0,1-6.838,7.541c-2.558,1.792-6.152-.86-6.27-4.076-.138-3.724,5.667-9.451,9.393-9.266" transform="translate(122.497 77.523)" fill="#fff"/>
        <path id="Path_443" data-name="Path 443" d="M16.577,24.674c-2.908,2.585-5.281,4.79-7.759,6.869-2.131,1.783-4.559,2.4-6.877.46C-.68,29.8-.429,26.929,1.4,24.542c1.954-2.558,4.484-4.675,7.37-7.6-2.04-2.233-4.1-4.308-5.953-6.554-2.478-3-2.577-6.055-.488-8.123C4.4.216,7.228.486,10.345,3.234c2.07,1.822,3.972,3.839,6.392,6.207,1.6-1.306,3.137-2.461,4.553-3.751,1.486-1.356,2.762-2.952,4.294-4.247,2.255-1.9,5.091-2.031,6.681.27a6.764,6.764,0,0,1,.163,6.058C30.375,11.152,27.445,14,24.57,17.431c1.838,2.246,3.638,4.283,5.256,6.458,2.373,3.194,2.475,6.337.212,8.1-2.809,2.188-5.2.772-7.351-1.262-1.814-1.72-3.556-3.517-6.111-6.053" transform="translate(-0.001 0)" fill="#db1239"/>
      </g>
    </g>
    <path id="Path_448" data-name="Path 448" d="M179.068,175.789a25.007,25.007,0,1,0,30.47,0,25.017,25.017,0,0,0-30.47,0" transform="translate(784.698 3368.771)" fill="#07e2d7"/>
    <path id="Path_449" data-name="Path 449" d="M179.068,175.789a25.007,25.007,0,1,0,30.47,0,25.017,25.017,0,0,0-30.47,0" transform="translate(710.18 3211.771)" fill="#ffd41f"/>
  </g>
</svg>
