<svg xmlns="http://www.w3.org/2000/svg" xmlns:xlink="http://www.w3.org/1999/xlink" width="321.999" height="293.658" viewBox="0 0 321.999 293.658">
  <defs>
    <clipPath id="clip-path">
      <rect id="Rectangle_56" data-name="Rectangle 56" width="301.523" height="137.082" fill="#fff"/>
    </clipPath>
  </defs>
  <g id="Group_52426" data-name="Group 52426" transform="translate(-798.762 -2671.923)">
    <g id="Group_52422" data-name="Group 52422" transform="matrix(0.788, 0.616, -0.616, 0.788, 883.158, 2671.924)">
      <g id="Group_52421" data-name="Group 52421" transform="translate(0 0)" clip-path="url(#clip-path)">
        <path id="Path_408" data-name="Path 408" d="M127.476,55.64c2.885-1.581,4.678-2.534,6.438-3.536,5.69-3.238,8.534-3.349,10.574-.374,2.091,3.051.379,5.657-5.524,9.544-7.035,4.63-13.876,9.554-20.8,14.355-.579.4-1.114.861-1.7,1.253-5.429,3.661-9.262,2.26-10.914-4.094-.528-2.032-.674-4.161-1.017-6.241-1.417-8.552-2.816-17.109-4.276-25.654-.781-4.555.044-6.864,2.846-7.489,2.752-.615,4.934,1.048,6.2,5.352,1.056,3.589,1.658,7.312,2.429,10.981.461,2.193.863,4.4,1.468,7.507,3.928-2.759,5.221-5.99,6.718-9.049.822-1.683,1.432-3.477,2.339-5.109,1.284-2.306,3.29-3.469,5.867-2.311,2.554,1.143,3.074,3.361,2.278,5.911-.812,2.6-1.688,5.168-2.934,8.954" transform="translate(156.18 51.986)" fill="#fff"/>
        <path id="Path_409" data-name="Path 409" d="M15.308,25.393c-3.866-2.2-7.146-3.979-10.338-5.905-1.591-.963-3.636-1.893-4.355-3.379a6.952,6.952,0,0,1-.033-5.639c.561-1,3.474-1.6,4.84-1.076,3.477,1.325,6.664,3.4,9.994,5.127,1.237.638,2.554,1.117,4.617,2.006,2.021-3.687,4.017-7.294,5.98-10.917C28.6.828,31.093-.845,33.852.392c2.787,1.25,2.972,4.066.548,9.236-1.668,3.561-3.384,7.1-5.306,11.122,3.559,1.85,6.664,3.4,9.71,5.068a32.379,32.379,0,0,1,5.352,3.326C46.391,31.011,47,33.476,45.184,36c-1.642,2.28-3.938,2.357-6.274,1.171-4.586-2.329-9.131-4.742-14.212-7.389-1.44,2.449-2.606,4.689-4.012,6.764-2.1,3.09-4.722,4.007-7.1,2.5-3.044-1.922-2.736-4.583-1.343-7.386.933-1.878,1.845-3.769,3.067-6.267" transform="translate(0 0)" fill="#ffd41f"/>
        <path id="Path_410" data-name="Path 410" d="M57.893,44.863c1.327-1.03,2.055-1.586,2.772-2.155,2.549-2.021,5.127-1.8,6.392,1.089A50.014,50.014,0,0,1,69.95,54.286c.138.707-1.33,2.5-2.027,2.477-4.691-.108-7.6,2.846-10.8,5.544-1.832,1.55-4.276,1.486-5.634-.418-.889-1.248-.874-3.395-.684-5.073.141-1.245,1.212-2.388,2-3.807-1.735-1.478-3.364-2.77-4.878-4.181-2.088-1.95-3.174-4.389-1.24-6.843,1.916-2.436,4.481-2.114,6.871-.364,1.317.963,2.616,1.955,4.332,3.241" transform="translate(71.354 62.848)" fill="#fff"/>
        <path id="Path_411" data-name="Path 411" d="M51.3,60.952c-3.769.1-7.266.412-10.732.215-2.839-.161-4.973-1.8-4.876-4.917.1-3.231,2.378-3.866,5.285-4.245A121.327,121.327,0,0,0,55.981,49c2.831-.743,5.293-.8,6.7,1.883,1.455,2.777-.061,5.142-2.516,6.433a93.487,93.487,0,0,1-8.87,3.638" transform="translate(55.744 75.848)" fill="#fff"/>
        <path id="Path_412" data-name="Path 412" d="M45.549,53.708c.4,3.559-1.6,5.929-4.691,5.544a34.381,34.381,0,0,1-17.8-7.781c-1.173-.968-1.742-4.22-1-5.511.72-1.255,3.794-2.283,5.28-1.778a139.756,139.756,0,0,1,15.5,6.613c1.3.625,2.126,2.255,2.713,2.913" transform="translate(33.94 68.81)" fill="#fff"/>
        <path id="Path_413" data-name="Path 413" d="M118.926,15.973c.4,3.151-.925,5.631-3.523,5.288a128.769,128.769,0,0,1-17.678-3.894c-.971-.272-2-2.739-1.824-4.025.182-1.3,1.717-3.3,2.854-3.443,6.677-.853,12.964.812,18.8,4.084.71.4,1.035,1.478,1.371,1.991" transform="translate(149.769 15.116)" fill="#fff"/>
        <path id="Path_414" data-name="Path 414" d="M17.564,28.549Q18.69,34.321,19.811,40.1c.518,2.672.63,5.306-2.611,6.285-3.08.93-4.814-1.035-6.005-3.495a24.754,24.754,0,0,1-2.034-14.98c.4-2.518,2.326-4.517,4.876-3.961,1.806.392,3.267,2.378,4.881,3.651l-1.353.953" transform="translate(13.746 37.258)" fill="#fff"/>
        <path id="Path_415" data-name="Path 415" d="M92.774,29.709c-.369,1.614-.331,3.19-1.045,4.261C89,38.045,86.18,42.078,83.1,45.888c-1.471,1.822-3.746,1.906-5.713.441a3.994,3.994,0,0,1-1.117-5.644,128.5,128.5,0,0,1,8.824-12.667c.886-1.091,3.356-1.373,5.006-1.189.981.11,1.781,1.852,2.677,2.88" transform="translate(118.014 41.827)" fill="#fff"/>
        <path id="Path_416" data-name="Path 416" d="M119.361,32.256c-.023,2.944.128,6.669-.141,10.366-.2,2.736-1.563,5.081-4.7,5.065-3.208-.015-4.307-2.365-4.445-5.191-.182-3.712-.131-7.438-.384-11.145-.21-3.092.295-5.7,3.769-6.41,2.57-.525,4.622,1.558,5.485,5.17.108.451.179.912.42,2.144" transform="translate(171.271 38.834)" fill="#fff"/>
        <path id="Path_417" data-name="Path 417" d="M30.933,48.991c.746,3.584-2.6,6.859-5.375,4.978A77.887,77.887,0,0,1,13.216,42.883a3.648,3.648,0,0,1,1.125-5.537c1.181-.7,3.551-1.089,4.4-.4,3.989,3.218,7.653,6.838,11.378,10.379a4.885,4.885,0,0,1,.812,1.668" transform="translate(19.319 57.147)" fill="#fff"/>
        <path id="Path_418" data-name="Path 418" d="M62.012,41.469c.356,1.829,1.212,3.746.922,5.465-.264,1.553-1.519,3.666-2.821,4.107-1.332.453-4.394-.43-4.727-1.4a144.305,144.305,0,0,1-4.432-16.674c-.169-.784,1.573-2.793,2.457-2.811,1.66-.028,4.1.492,4.852,1.66,1.85,2.88,2.923,6.254,4.307,9.428l-.559.228" transform="translate(79.574 47.099)" fill="#fff"/>
        <path id="Path_419" data-name="Path 419" d="M38.442,40.665c-1.158-5.419-.179-7.95,2.488-8.57,3.223-.746,4.555,1.384,5.759,3.869,1.424,2.939,3.041,5.788,4.648,8.637,1.453,2.577,1.591,5.027-1.109,6.715-2.657,1.663-5.127.623-6.687-1.763-2.155-3.3-3.94-6.841-5.1-8.888" transform="translate(59.297 49.898)" fill="#fff"/>
        <path id="Path_420" data-name="Path 420" d="M85.053,40.007c-.277.833-.377,2.411-1.2,3.364a59.569,59.569,0,0,1-8.273,8.388c-1.227.951-4.112.958-5.555.156-2.349-1.3-2.38-4.061-.71-6.057A62.822,62.822,0,0,1,78,36.909c2.893-2.306,6.513-.684,7.053,3.1" transform="translate(106.451 55.991)" fill="#fff"/>
        <path id="Path_421" data-name="Path 421" d="M61.887,43.274c4.63-.213,8.129-.7,11.552-.374a5.36,5.36,0,0,1,3.83,3.138c.359,1.371-.615,3.589-1.729,4.737-2.232,2.3-12.139,2.577-14.593.364a6.049,6.049,0,0,1-1.8-4.74c.261-1.419,2.178-2.531,2.744-3.126" transform="translate(92.309 66.84)" fill="#fff"/>
        <path id="Path_422" data-name="Path 422" d="M48.276,23.473c.83.453,3.11.992,3.984,2.4.707,1.14.238,3.677-.63,4.978a28.73,28.73,0,0,1-6.1,6.618c-1.232.961-3.746,1.481-5.009.853-1.23-.615-2.219-2.941-2.234-4.525-.038-3.694,5.055-9.167,9.992-10.325" transform="translate(59.801 36.666)" fill="#fff"/>
        <path id="Path_423" data-name="Path 423" d="M119.856,27.794c-.915,1.67-1.4,3.864-2.665,4.5-1.291.651-4.138.412-4.932-.559a46.9,46.9,0,0,1-5.808-9.5,3.9,3.9,0,0,1,2.021-5.365,4.068,4.068,0,0,1,5.567,1.5c1.957,2.887,3.679,5.934,5.816,9.426" transform="translate(165.626 25.513)" fill="#fff"/>
        <path id="Path_424" data-name="Path 424" d="M91.873,24.677c-4.548,1.081-6.984-1.073-6.666-4.276.364-3.7,7.822-9.833,11.693-9.615,3.172.179,5.385,3.408,3.438,5.844-2.677,3.359-6.249,6-8.465,8.047" transform="translate(133.053 16.839)" fill="#fff"/>
        <path id="Path_425" data-name="Path 425" d="M86.963,18.259a3.9,3.9,0,0,1,4.858,4.317,31.013,31.013,0,0,1-2.583,8.642c-1.317,2.759-5.229,2.828-7.064.492-2.811-3.579.395-12.582,4.788-13.451" transform="translate(126.708 28.384)" fill="#fff"/>
        <path id="Path_426" data-name="Path 426" d="M59.206,29.909a4.148,4.148,0,0,1-3.653,5.011c-2.939.336-8.222-3.254-8.775-5.964a4.192,4.192,0,0,1,3.807-4.909c3.338-.423,8.029,2.767,8.621,5.862" transform="translate(72.941 37.504)" fill="#fff"/>
      </g>
    </g>
    <path id="Path_446" data-name="Path 446" d="M179.068,175.789a25.007,25.007,0,1,0,30.47,0,25.017,25.017,0,0,0-30.47,0" transform="translate(765.698 2713.771)" fill="#db1239"/>
    <path id="Path_447" data-name="Path 447" d="M179.068,175.789a25.007,25.007,0,1,0,30.47,0,25.017,25.017,0,0,0-30.47,0" transform="translate(790.698 2598.138)" fill="#07e2d7"/>
  </g>
</svg>
