<svg xmlns="http://www.w3.org/2000/svg" xmlns:xlink="http://www.w3.org/1999/xlink" width="1620" height="589" viewBox="0 0 1620 589">
  <defs>
    <clipPath id="clip-path">
      <rect id="Rectangle_11" data-name="Rectangle 11" width="525.782" height="589" fill="none"/>
    </clipPath>
  </defs>
  <g id="BG" transform="translate(-260 -2631)">
    <g id="BG-2" data-name="BG" transform="translate(1314.631 2631)">
      <g id="Group_52442" data-name="Group 52442">
        <path id="Path_191" data-name="Path 191" d="M183.108,205.362a281.786,281.786,0,0,1-43.524,20.788,38.448,38.448,0,1,0,27.067,71.975,359.7,359.7,0,0,0,56.681-27.216,38.459,38.459,0,0,0,10.774-56.635c-11.969-15.582-34.058-18.864-51-8.912" transform="translate(165.596 288.407)" fill="#316adb"/>
        <path id="Path_192" data-name="Path 192" d="M68.607,122.807a38.279,38.279,0,0,0,20.866-6.181,115.592,115.592,0,0,1,48.019-17.679,38.447,38.447,0,0,0-10.119-76.225,194.677,194.677,0,0,0-79.7,29.365,38.451,38.451,0,0,0,20.937,70.721" transform="translate(43.499 32.323)" fill="#316adb"/>
        <path id="Path_193" data-name="Path 193" d="M184.385,178.6a38.624,38.624,0,1,0,47.061,0,38.639,38.639,0,0,0-47.061,0" transform="translate(244.509 246.419)" fill="#989f7c"/>
        <path id="Path_194" data-name="Path 194" d="M62.142,133.486a38.622,38.622,0,1,0-47.059,0,38.637,38.637,0,0,0,47.059,0" transform="translate(0 92.797)" fill="#1ba6d9"/>
        <path id="Path_195" data-name="Path 195" d="M249.67,38.7A38.434,38.434,0,0,1,288.1,77.133V193.725a357.7,357.7,0,0,1-21.939,124.081,38.407,38.407,0,0,1-53.257,21.125c-17.813-8.772-25.2-30.135-18.459-48.809a282.621,282.621,0,0,0,16.784-96.4V77.133A38.434,38.434,0,0,1,249.67,38.7Z" transform="translate(277.264 55.888)" fill="#316adb"/>
        <path id="Path_196" data-name="Path 196" d="M345,0a38.483,38.483,0,0,1,38.484,38.484V247.746A193.88,193.88,0,0,1,189.341,441.474h-.391A193.9,193.9,0,0,1,7.834,317.137c-9.679-25.175,8.775-54.188,39.963-52.331,14.714.807,26.666,11.634,32.019,25.444,8.6,22.022,23.562,40.623,44.118,54.775a106.4,106.4,0,0,0,34.219,15.667c42.334,10.73,84.35-1.124,113.681-30.479.489-.464,1.051-.807,1.613-1.3a116.47,116.47,0,0,0,33.07-81.246V38.484A38.483,38.483,0,0,1,345,0Z" transform="translate(7.584)" fill="#316adb"/>
      </g>
    </g>
    <g id="Group_85" data-name="Group 85" transform="translate(260 2631)">
      <g id="Group_84" data-name="Group 84" clip-path="url(#clip-path)">
        <path id="Path_187" data-name="Path 187" d="M169.39,38.16c-23.94,0-42.436,23.292-34.072,48.449,4.835,14.531,18.939,23.756,34.255,23.779a111.473,111.473,0,0,1,92.749,173c-11.076,16.68-6.672,39.788,10.114,50.706a36.1,36.1,0,0,0,49.686-10.2,182.858,182.858,0,0,0,30.947-102.054c0-101.28-82.4-183.679-183.679-183.679" transform="translate(172.715 49.453)" fill="#316adb"/>
        <path id="Path_188" data-name="Path 188" d="M237.872,397.168A247.166,247.166,0,0,1,72.23,163.934a250.434,250.434,0,0,1,1.763-29.677A36.115,36.115,0,0,0,2.275,125.67,323.411,323.411,0,0,0,0,163.934,319.461,319.461,0,0,0,214.107,465.375a36.115,36.115,0,0,0,23.765-68.208" transform="translate(0 121.606)" fill="#316adb"/>
        <path id="Path_189" data-name="Path 189" d="M165.317,171.5a36.28,36.28,0,1,0,44.2,0,36.295,36.295,0,0,0-44.2,0" transform="translate(195.878 212.541)" fill="#863e89"/>
        <path id="Path_190" data-name="Path 190" d="M284.734,418.456a36.291,36.291,0,0,1-49.248,21.972,181.781,181.781,0,0,1-21.214-11.365c-2.732-1.768-5.418-3.444-8.082-5.281a161.418,161.418,0,0,1-15.8-12.283c-1.607-1.446-3.375-2.893-4.959-4.431-1.768-1.515-3.6-3.191-5.35-4.959a180.959,180.959,0,0,1-44.128-71.587c-.689-2.066-1.378-4.27-1.975-6.337-.62-2.066-1.309-4.2-1.837-6.406a193.321,193.321,0,0,1-5.418-44.128V242.588a98.936,98.936,0,0,0-5.258-33.038c-13.822-39.1-41.3-72.6-79.393-96.8A36.154,36.154,0,0,1,31.86,61.623c11.3-16.255,34.255-19.4,50.832-8.633a263.339,263.339,0,0,1,27.023,19.768,207.58,207.58,0,0,0,16.662-45.434A36.11,36.11,0,0,1,196.52,44.511a280.314,280.314,0,0,1-35.674,84.13v.069a242.763,242.763,0,0,1,28.63,56.709A169.842,169.842,0,0,1,199,242.588v31a110.6,110.6,0,0,0,2.066,21.444c.39,1.538.62,2.985,1.079,4.431a40.165,40.165,0,0,0,1.056,4.2,89.151,89.151,0,0,0,3.444,9.62,113.082,113.082,0,0,0,17.931,30.375c1.148,1.286,2.2,2.5,3.352,3.811,2.594,2.755,5.189,5.487,8.1,8.082a74.212,74.212,0,0,0,6.015,4.959,37.5,37.5,0,0,0,3.9,2.916,3.73,3.73,0,0,0,1.056.758c1.607,1.079,3.214,2.2,4.89,3.214a.67.67,0,0,0,.528.3,93.792,93.792,0,0,0,12.306,6.727c16.554,7.462,25.646,26.633,20,44.036" transform="translate(32.892)" fill="#316adb"/>
      </g>
    </g>
  </g>
</svg>
