<svg xmlns="http://www.w3.org/2000/svg" xmlns:xlink="http://www.w3.org/1999/xlink" width="1920" height="1488" viewBox="0 0 1920 1488">
  <defs>
    <clipPath id="clip-path">
      <rect id="Rectangle_52" data-name="Rectangle 52" width="634.965" height="987.707" fill="none"/>
    </clipPath>
    <clipPath id="clip-path-2">
      <rect id="Rectangle_53" data-name="Rectangle 53" width="634.953" height="987.706" fill="none"/>
    </clipPath>
    <clipPath id="clip-path-3">
      <rect id="Rectangle_12" data-name="Rectangle 12" width="565.369" height="589" fill="none"/>
    </clipPath>
    <clipPath id="clip-path-4">
      <rect id="Rectangle_11" data-name="Rectangle 11" width="525.782" height="589" fill="none"/>
    </clipPath>
    <clipPath id="clip-BG1">
      <rect width="1920" height="1488"/>
    </clipPath>
  </defs>
  <g id="BG1" clip-path="url(#clip-BG1)">
    <rect width="1920" height="1488" fill="#0b44b5"/>
    <g id="Group_52442" data-name="Group 52442">
      <g id="Group_52413" data-name="Group 52413" transform="translate(0 -580)">
        <g id="Group_52395" data-name="Group 52395" transform="translate(1285.035 1080)">
          <g id="Group_52389" data-name="Group 52389" transform="translate(0)" clip-path="url(#clip-path)">
            <path id="Path_365" data-name="Path 365" d="M357.466,170.531a39.948,39.948,0,1,1,0,79.9A123.306,123.306,0,0,0,254.917,442.164a39.947,39.947,0,1,1-66.4,44.434,202.251,202.251,0,0,1-34.232-112.888c0-112.03,91.146-203.178,203.178-203.178" transform="translate(-154.291 262.561)" fill="#316adb"/>
            <path id="Path_366" data-name="Path 366" d="M47.827,561.741A273.4,273.4,0,0,0,231.053,303.746a277.024,277.024,0,0,0-1.95-32.828,39.949,39.949,0,0,1,79.332-9.5,357.741,357.741,0,0,1,2.517,42.326A353.376,353.376,0,0,1,74.115,637.189a39.948,39.948,0,0,1-26.288-75.448" transform="translate(270.647 348.285)" fill="#316adb"/>
            <path id="Path_367" data-name="Path 367" d="M32.7,169.261a40.121,40.121,0,1,1,56.741,0,40.122,40.122,0,0,1-56.741,0" transform="translate(480.583 155.156)" fill="#316adb"/>
            <path id="Path_368" data-name="Path 368" d="M240.651,308.125a40.12,40.12,0,1,1-56.739,0,40.122,40.122,0,0,1,56.739,0" transform="translate(-54.672 456.317)" fill="#863e8a"/>
            <path id="Path_369" data-name="Path 369" d="M1.857,799.054a40.144,40.144,0,0,0,54.476,24.3A201.075,201.075,0,0,0,79.8,810.787c3.022-1.956,5.994-3.81,8.94-5.841a178.56,178.56,0,0,0,17.473-13.587c1.778-1.6,3.733-3.2,5.486-4.9,1.956-1.676,3.987-3.53,5.917-5.486a200.171,200.171,0,0,0,48.812-79.187c.762-2.286,1.524-4.724,2.184-7.01.686-2.286,1.448-4.648,2.032-7.086a213.843,213.843,0,0,0,5.994-48.812V604.515a109.438,109.438,0,0,1,5.816-36.546c15.289-43.251,45.689-80.3,87.822-107.072a39.992,39.992,0,0,0,11.3-56.558c-12.5-17.981-37.892-21.46-56.228-9.549a291.291,291.291,0,0,0-29.892,21.867,232.169,232.169,0,0,1-24.127-122.767c8.686-114.31,102.4-206.424,216.887-213.51,4.978-.356,9.879-.432,14.7-.432,1.219,0,2.438,0,3.657.051V.024a315.6,315.6,0,0,0-37.1,1.727C221.893,17.116,104.205,137.521,91.862,285.457A310.68,310.68,0,0,0,138.9,478.472v.076a268.534,268.534,0,0,0-31.67,62.73,187.873,187.873,0,0,0-10.54,63.238V638.8a122.344,122.344,0,0,1-2.286,23.72c-.432,1.7-.686,3.3-1.194,4.9a44.428,44.428,0,0,1-1.168,4.648,98.606,98.606,0,0,1-3.809,10.641,125.087,125.087,0,0,1-19.835,33.6c-1.27,1.422-2.438,2.768-3.708,4.216-2.87,3.048-5.74,6.07-8.965,8.94a82.121,82.121,0,0,1-6.654,5.486,41.457,41.457,0,0,1-4.317,3.225,4.125,4.125,0,0,1-1.168.838c-1.778,1.194-3.556,2.438-5.41,3.556a.741.741,0,0,1-.584.33,103.762,103.762,0,0,1-13.613,7.441C5.666,758.6-4.391,779.8,1.857,799.054" transform="translate(228.387 -0.001)" fill="#316adb"/>
          </g>
        </g>
        <g id="Group_52396" data-name="Group 52396" transform="translate(0 1080)">
          <g id="Group_52391" data-name="Group 52391" transform="translate(0)" clip-path="url(#clip-path-2)">
            <path id="Path_370" data-name="Path 370" d="M60.333,5.595a293.07,293.07,0,0,0,46.26,22.212,39.95,39.95,0,1,1-28.122,74.786,373.651,373.651,0,0,1-58.9-28.279A39.948,39.948,0,1,1,60.333,5.595" transform="translate(211.259 882.548)" fill="#316adb"/>
            <path id="Path_371" data-name="Path 371" d="M68.49,11.749a40.121,40.121,0,1,1-56.739,0,40.122,40.122,0,0,1,56.739,0" transform="translate(37.461 255.907)" fill="#316adb"/>
            <path id="Path_372" data-name="Path 372" d="M106.272,104.348A39.774,39.774,0,0,1,84.59,97.925,120.11,120.11,0,0,0,34.7,79.556,39.949,39.949,0,1,1,45.21.353a202.282,202.282,0,0,1,82.817,30.512,39.953,39.953,0,0,1-21.755,73.483" transform="translate(412.196 432.54)" fill="#316adb"/>
            <path id="Path_373" data-name="Path 373" d="M68.492,11.751a40.121,40.121,0,1,1-56.739,0,40.122,40.122,0,0,1,56.739,0" transform="translate(124.736 809.027)" fill="#989f7d"/>
            <path id="Path_374" data-name="Path 374" d="M11.749,68.489a40.12,40.12,0,1,1,56.739,0,40.124,40.124,0,0,1-56.739,0" transform="translate(554.714 538.876)" fill="#1ca6d9"/>
            <path id="Path_375" data-name="Path 375" d="M39.937,0A39.936,39.936,0,0,0,0,39.937V161.082A371.675,371.675,0,0,0,22.8,290.01,39.891,39.891,0,0,0,77.422,312.3c18.961-8.907,26.824-31.769,19.736-51.482a293.718,293.718,0,0,1-17.285-99.736V39.937A39.936,39.936,0,0,0,39.937,0Z" transform="translate(47.5 473.98)" fill="#316adb"/>
            <path id="Path_376" data-name="Path 376" d="M0,0V79.975C126.477,81.905,228.6,185.321,228.6,312.1v20.7a38.068,38.068,0,0,0-.152,5.41c.076,1.752.152,3.454.152,5.13.1,2.717.1,5.41,0,8.127V633.12a201.453,201.453,0,0,0,201.728,201.3h.406A201.478,201.478,0,0,0,618.923,705.222c10.057-26.159-9.117-56.305-41.524-54.375-15.289.838-27.708,12.089-33.27,26.438-8.94,22.883-24.483,42.21-45.841,56.915a110.557,110.557,0,0,1-35.556,16.279c-43.987,11.149-87.645-1.168-118.121-31.67-.508-.483-1.092-.838-1.676-1.346a121.02,121.02,0,0,1-34.362-84.419V312.027C308.471,141.131,170.464,1.93,0,0" transform="translate(0)" fill="#316adb"/>
          </g>
        </g>
      </g>
      <g id="Group_88" data-name="Group 88" transform="translate(-110 -2631)">
        <g id="Group_87" data-name="Group 87" transform="translate(1314.631 2631)">
          <g id="Group_86" data-name="Group 86" clip-path="url(#clip-path-3)">
            <path id="Path_191" data-name="Path 191" d="M183.108,205.362a281.786,281.786,0,0,1-43.524,20.788,38.448,38.448,0,1,0,27.067,71.975,359.7,359.7,0,0,0,56.681-27.216,38.459,38.459,0,0,0,10.774-56.635c-11.969-15.582-34.058-18.864-51-8.912" transform="translate(165.596 288.407)" fill="#316adb"/>
            <path id="Path_192" data-name="Path 192" d="M68.607,122.807a38.279,38.279,0,0,0,20.866-6.181,115.592,115.592,0,0,1,48.019-17.679,38.447,38.447,0,0,0-10.119-76.225,194.677,194.677,0,0,0-79.7,29.365,38.451,38.451,0,0,0,20.937,70.721" transform="translate(43.499 32.323)" fill="#316adb"/>
            <path id="Path_193" data-name="Path 193" d="M184.385,178.6a38.624,38.624,0,1,0,47.061,0,38.639,38.639,0,0,0-47.061,0" transform="translate(244.509 246.419)" fill="#989f7d"/>
            <path id="Path_194" data-name="Path 194" d="M62.142,133.486a38.622,38.622,0,1,0-47.059,0,38.637,38.637,0,0,0,47.059,0" transform="translate(0 92.797)" fill="#1ca6d9"/>
            <path id="Path_195" data-name="Path 195" d="M249.67,38.7A38.434,38.434,0,0,1,288.1,77.133V193.725a357.7,357.7,0,0,1-21.939,124.081,38.407,38.407,0,0,1-53.257,21.125c-17.813-8.772-25.2-30.135-18.459-48.809a282.621,282.621,0,0,0,16.784-96.4V77.133A38.434,38.434,0,0,1,249.67,38.7Z" transform="translate(277.264 55.888)" fill="#316adb"/>
            <path id="Path_196" data-name="Path 196" d="M345,0a38.483,38.483,0,0,1,38.484,38.484V247.746A193.88,193.88,0,0,1,189.341,441.474h-.391A193.9,193.9,0,0,1,7.834,317.137c-9.679-25.175,8.775-54.188,39.963-52.331,14.714.807,26.666,11.634,32.019,25.444,8.6,22.022,23.562,40.623,44.118,54.775a106.4,106.4,0,0,0,34.219,15.667c42.334,10.73,84.35-1.124,113.681-30.479.489-.464,1.051-.807,1.613-1.3a116.47,116.47,0,0,0,33.07-81.246V38.484A38.483,38.483,0,0,1,345,0Z" transform="translate(7.584)" fill="#316adb"/>
          </g>
        </g>
        <g id="Group_85" data-name="Group 85" transform="translate(260 2631)">
          <g id="Group_84" data-name="Group 84" clip-path="url(#clip-path-4)">
            <path id="Path_187" data-name="Path 187" d="M169.39,38.16c-23.94,0-42.436,23.292-34.072,48.449,4.835,14.531,18.939,23.756,34.255,23.779a111.473,111.473,0,0,1,92.749,173c-11.076,16.68-6.672,39.788,10.114,50.706a36.1,36.1,0,0,0,49.686-10.2,182.858,182.858,0,0,0,30.947-102.054c0-101.28-82.4-183.679-183.679-183.679" transform="translate(172.715 49.453)" fill="#316adb"/>
            <path id="Path_188" data-name="Path 188" d="M237.872,397.168A247.166,247.166,0,0,1,72.23,163.934a250.434,250.434,0,0,1,1.763-29.677A36.115,36.115,0,0,0,2.275,125.67,323.411,323.411,0,0,0,0,163.934,319.461,319.461,0,0,0,214.107,465.375a36.115,36.115,0,0,0,23.765-68.208" transform="translate(0 121.606)" fill="#316adb"/>
            <path id="Path_189" data-name="Path 189" d="M165.317,171.5a36.28,36.28,0,1,0,44.2,0,36.295,36.295,0,0,0-44.2,0" transform="translate(195.878 212.541)" fill="#863e8a"/>
            <path id="Path_190" data-name="Path 190" d="M284.734,418.456a36.291,36.291,0,0,1-49.248,21.972,181.781,181.781,0,0,1-21.214-11.365c-2.732-1.768-5.418-3.444-8.082-5.281a161.418,161.418,0,0,1-15.8-12.283c-1.607-1.446-3.375-2.893-4.959-4.431-1.768-1.515-3.6-3.191-5.35-4.959a180.959,180.959,0,0,1-44.128-71.587c-.689-2.066-1.378-4.27-1.975-6.337-.62-2.066-1.309-4.2-1.837-6.406a193.321,193.321,0,0,1-5.418-44.128V242.588a98.936,98.936,0,0,0-5.258-33.038c-13.822-39.1-41.3-72.6-79.393-96.8A36.154,36.154,0,0,1,31.86,61.623c11.3-16.255,34.255-19.4,50.832-8.633a263.339,263.339,0,0,1,27.023,19.768,207.58,207.58,0,0,0,16.662-45.434A36.11,36.11,0,0,1,196.52,44.511a280.314,280.314,0,0,1-35.674,84.13v.069a242.763,242.763,0,0,1,28.63,56.709A169.842,169.842,0,0,1,199,242.588v31a110.6,110.6,0,0,0,2.066,21.444c.39,1.538.62,2.985,1.079,4.431a40.165,40.165,0,0,0,1.056,4.2,89.151,89.151,0,0,0,3.444,9.62,113.082,113.082,0,0,0,17.931,30.375c1.148,1.286,2.2,2.5,3.352,3.811,2.594,2.755,5.189,5.487,8.1,8.082a74.212,74.212,0,0,0,6.015,4.959,37.5,37.5,0,0,0,3.9,2.916,3.73,3.73,0,0,0,1.056.758c1.607,1.079,3.214,2.2,4.89,3.214a.67.67,0,0,0,.528.3,93.792,93.792,0,0,0,12.306,6.727c16.554,7.462,25.646,26.633,20,44.036" transform="translate(32.892)" fill="#316adb"/>
          </g>
        </g>
      </g>
    </g>
  </g>
</svg>
