<svg xmlns="http://www.w3.org/2000/svg" xmlns:xlink="http://www.w3.org/1999/xlink" width="1920" height="987.707" viewBox="0 0 1920 987.707">
  <defs>
    <clipPath id="clip-path">
      <rect id="Rectangle_52" data-name="Rectangle 52" width="634.965" height="987.707" fill="none"/>
    </clipPath>
    <clipPath id="clip-path-2">
      <rect id="Rectangle_53" data-name="Rectangle 53" width="634.953" height="987.706" fill="none"/>
    </clipPath>
  </defs>
  <g id="BG2" transform="translate(0 -1080)">
    <g id="Group_52395" data-name="Group 52395" transform="translate(1285.035 1080)">
      <g id="Group_52389" data-name="Group 52389" transform="translate(0)" clip-path="url(#clip-path)">
        <path id="Path_365" data-name="Path 365" d="M357.466,170.531a39.948,39.948,0,1,1,0,79.9A123.306,123.306,0,0,0,254.917,442.164a39.947,39.947,0,1,1-66.4,44.434,202.251,202.251,0,0,1-34.232-112.888c0-112.03,91.146-203.178,203.178-203.178" transform="translate(-154.291 262.561)" fill="#316adb"/>
        <path id="Path_366" data-name="Path 366" d="M47.827,561.741A273.4,273.4,0,0,0,231.053,303.746a277.024,277.024,0,0,0-1.95-32.828,39.949,39.949,0,0,1,79.332-9.5,357.741,357.741,0,0,1,2.517,42.326A353.376,353.376,0,0,1,74.115,637.189a39.948,39.948,0,0,1-26.288-75.448" transform="translate(270.647 348.285)" fill="#316adb"/>
        <path id="Path_367" data-name="Path 367" d="M32.7,169.261a40.121,40.121,0,1,1,56.741,0,40.122,40.122,0,0,1-56.741,0" transform="translate(480.583 155.156)" fill="#316adb"/>
        <path id="Path_368" data-name="Path 368" d="M240.651,308.125a40.12,40.12,0,1,1-56.739,0,40.122,40.122,0,0,1,56.739,0" transform="translate(-54.672 456.317)" fill="#863e89"/>
        <path id="Path_369" data-name="Path 369" d="M1.857,799.054a40.144,40.144,0,0,0,54.476,24.3A201.075,201.075,0,0,0,79.8,810.787c3.022-1.956,5.994-3.81,8.94-5.841a178.56,178.56,0,0,0,17.473-13.587c1.778-1.6,3.733-3.2,5.486-4.9,1.956-1.676,3.987-3.53,5.917-5.486a200.171,200.171,0,0,0,48.812-79.187c.762-2.286,1.524-4.724,2.184-7.01.686-2.286,1.448-4.648,2.032-7.086a213.843,213.843,0,0,0,5.994-48.812V604.515a109.438,109.438,0,0,1,5.816-36.546c15.289-43.251,45.689-80.3,87.822-107.072a39.992,39.992,0,0,0,11.3-56.558c-12.5-17.981-37.892-21.46-56.228-9.549a291.291,291.291,0,0,0-29.892,21.867,232.169,232.169,0,0,1-24.127-122.767c8.686-114.31,102.4-206.424,216.887-213.51,4.978-.356,9.879-.432,14.7-.432,1.219,0,2.438,0,3.657.051V.024a315.6,315.6,0,0,0-37.1,1.727C221.893,17.116,104.205,137.521,91.862,285.457A310.68,310.68,0,0,0,138.9,478.472v.076a268.534,268.534,0,0,0-31.67,62.73,187.873,187.873,0,0,0-10.54,63.238V638.8a122.344,122.344,0,0,1-2.286,23.72c-.432,1.7-.686,3.3-1.194,4.9a44.428,44.428,0,0,1-1.168,4.648,98.606,98.606,0,0,1-3.809,10.641,125.087,125.087,0,0,1-19.835,33.6c-1.27,1.422-2.438,2.768-3.708,4.216-2.87,3.048-5.74,6.07-8.965,8.94a82.121,82.121,0,0,1-6.654,5.486,41.457,41.457,0,0,1-4.317,3.225,4.125,4.125,0,0,1-1.168.838c-1.778,1.194-3.556,2.438-5.41,3.556a.741.741,0,0,1-.584.33,103.762,103.762,0,0,1-13.613,7.441C5.666,758.6-4.391,779.8,1.857,799.054" transform="translate(228.387 -0.001)" fill="#316adb"/>
      </g>
    </g>
    <g id="Group_52396" data-name="Group 52396" transform="translate(0 1080)">
      <g id="Group_52391" data-name="Group 52391" transform="translate(0)" clip-path="url(#clip-path-2)">
        <path id="Path_370" data-name="Path 370" d="M60.333,5.595a293.07,293.07,0,0,0,46.26,22.212,39.95,39.95,0,1,1-28.122,74.786,373.651,373.651,0,0,1-58.9-28.279A39.948,39.948,0,1,1,60.333,5.595" transform="translate(211.259 882.548)" fill="#316adb"/>
        <path id="Path_371" data-name="Path 371" d="M68.49,11.749a40.121,40.121,0,1,1-56.739,0,40.122,40.122,0,0,1,56.739,0" transform="translate(37.461 255.907)" fill="#316adb"/>
        <path id="Path_372" data-name="Path 372" d="M106.272,104.348A39.774,39.774,0,0,1,84.59,97.925,120.11,120.11,0,0,0,34.7,79.556,39.949,39.949,0,1,1,45.21.353a202.282,202.282,0,0,1,82.817,30.512,39.953,39.953,0,0,1-21.755,73.483" transform="translate(412.196 432.54)" fill="#316adb"/>
        <path id="Path_373" data-name="Path 373" d="M68.492,11.751a40.121,40.121,0,1,1-56.739,0,40.122,40.122,0,0,1,56.739,0" transform="translate(124.736 809.027)" fill="#989f7c"/>
        <path id="Path_374" data-name="Path 374" d="M11.749,68.489a40.12,40.12,0,1,1,56.739,0,40.124,40.124,0,0,1-56.739,0" transform="translate(554.714 538.876)" fill="#1ba6d9"/>
        <path id="Path_375" data-name="Path 375" d="M39.937,0A39.936,39.936,0,0,0,0,39.937V161.082A371.675,371.675,0,0,0,22.8,290.01,39.891,39.891,0,0,0,77.422,312.3c18.961-8.907,26.824-31.769,19.736-51.482a293.718,293.718,0,0,1-17.285-99.736V39.937A39.936,39.936,0,0,0,39.937,0Z" transform="translate(47.5 473.98)" fill="#316adb"/>
        <path id="Path_376" data-name="Path 376" d="M0,0V79.975C126.477,81.905,228.6,185.321,228.6,312.1v20.7a38.068,38.068,0,0,0-.152,5.41c.076,1.752.152,3.454.152,5.13.1,2.717.1,5.41,0,8.127V633.12a201.453,201.453,0,0,0,201.728,201.3h.406A201.478,201.478,0,0,0,618.923,705.222c10.057-26.159-9.117-56.305-41.524-54.375-15.289.838-27.708,12.089-33.27,26.438-8.94,22.883-24.483,42.21-45.841,56.915a110.557,110.557,0,0,1-35.556,16.279c-43.987,11.149-87.645-1.168-118.121-31.67-.508-.483-1.092-.838-1.676-1.346a121.02,121.02,0,0,1-34.362-84.419V312.027C308.471,141.131,170.464,1.93,0,0" transform="translate(0)" fill="#316adb"/>
      </g>
    </g>
  </g>
</svg>
