<svg xmlns="http://www.w3.org/2000/svg" width="16.52" height="12.39" viewBox="0 0 16.52 12.39">
  <path id="envelope" d="M16.207,8.591a.194.194,0,0,1,.313.152v6.6a1.549,1.549,0,0,1-1.549,1.549H1.549A1.549,1.549,0,0,1,0,15.341V8.746a.193.193,0,0,1,.313-.152c.723.561,1.681,1.274,4.972,3.665.681.5,1.829,1.542,2.975,1.536,1.152.01,2.323-1.058,2.978-1.536C14.529,9.869,15.484,9.153,16.207,8.591ZM8.26,12.76c.749.013,1.826-.942,2.368-1.336,4.282-3.107,4.607-3.378,5.595-4.152a.772.772,0,0,0,.3-.61V6.049A1.549,1.549,0,0,0,14.971,4.5H1.549A1.549,1.549,0,0,0,0,6.049v.613a.777.777,0,0,0,.3.61c.987.771,1.313,1.045,5.595,4.152C6.434,11.818,7.511,12.773,8.26,12.76Z" transform="translate(0 -4.5)" fill="#fff"/>
</svg>
