<?xml version="1.0" encoding="UTF-8"?>
<svg id="Layer_2" data-name="Layer 2" xmlns="http://www.w3.org/2000/svg" viewBox="0 0 4614.76 1209.51">
  <defs>
    <style>
      .cls-1 {
        fill: #ffbe1d;
      }

      .cls-2 {
        fill: #fff;
      }

      .cls-3 {
        fill: #dd0f4d;
      }

      .cls-4 {
        fill: #09d8c9;
      }
    </style>
  </defs>
  <g id="Layer_1-2" data-name="Layer 1">
    <g>
      <g>
        <path class="cls-2" d="M2390.01,896.35c-7.13-34.12-20.06-67.2-37.74-96.67,25.95-44.77,40.01-95.43,40.01-149.71,0-168.62-137.92-306.55-306.45-306.55s-306.55,137.93-306.55,306.55v258.17c0,27.19,21.19,48.39,48.28,48.39s48.39-21.2,48.39-48.39v-258.17c0-115.49,93.15-209.88,209.88-209.88s209.78,94.39,209.78,209.88c0,24.82-4.65,47.15-11.79,69.59-53.04-43.63-121.38-70.72-194.48-70.72-27.09,0-49.52,21.2-49.52,48.29s22.44,48.38,49.52,48.38c101.32,0,186.21,71.86,205.13,167.39l1.14,3.52c4.76,28.33,29.47,43.63,56.66,38.97,25.95-4.76,42.39-30.7,37.74-56.65v-2.38Z"/>
        <path class="cls-2" d="M2794.37,828.01c-20.06-18.82-49.52-18.82-68.34,0-20.06,18.82-47.15,31.84-76.72,31.84-61.31,0-109.59-49.52-109.59-109.7s48.28-109.59,109.59-109.59c9.51,0,21.3,3.51,31.84,9.41l-68.34,68.45c-20.06,18.82-20.06,48.28,0,68.34,18.82,18.82,48.39,18.82,68.34,0l113.21-114.35c18.92-18.92,18.92-49.52-2.38-70.72-36.5-35.36-87.26-57.79-142.68-57.79-113.11,0-206.26,93.15-206.26,206.27s93.15,206.37,206.26,206.37c56.66,0,107.32-23.58,145.06-60.18,18.92-19.95,18.92-49.52,0-68.34Z"/>
        <path class="cls-2" d="M3065.56,543.89c-113.21,0-206.37,93.15-206.37,206.27s93.15,206.37,206.37,206.37c25.95,0,47.15-21.2,47.15-48.39s-21.19-48.28-47.15-48.28c-61.31,0-109.7-49.52-109.7-109.7s48.39-109.59,109.7-109.59,109.59,49.52,109.59,109.59v157.98c0,27.19,21.3,48.39,48.39,48.39s48.39-21.2,48.39-48.39v-157.98c0-113.11-93.15-206.27-206.37-206.27Z"/>
        <path class="cls-2" d="M3605.57,828.01c-20.06,20.06-47.15,31.84-76.72,31.84-61.31,0-109.59-49.52-109.59-109.7s48.28-109.59,109.59-109.59c29.57,0,56.66,11.79,76.72,31.84,18.82,18.82,48.28,18.82,68.34,0,18.92-20.06,18.92-49.52,0-68.45-37.74-36.49-88.4-60.07-145.06-60.07-113.11,0-206.26,93.15-206.26,206.27s93.15,206.37,206.26,206.37c56.66,0,107.32-23.58,145.06-60.18,18.92-18.82,18.92-48.28,0-68.34-20.06-18.82-49.52-18.82-68.34,0Z"/>
        <path class="cls-2" d="M3945.1,543.89c-43.63,0-81.37,15.3-109.7,41.26v-193.34c0-27.09-22.33-48.39-48.28-48.39s-48.39,21.3-48.39,48.39v516.33c0,27.19,21.3,48.39,48.39,48.39s48.28-21.2,48.28-48.39v-157.98c0-60.07,48.39-109.59,109.7-109.59s109.59,49.52,109.59,109.59v157.98c0,27.19,21.3,48.39,48.39,48.39s48.39-21.2,48.39-48.39v-157.98c0-113.11-93.15-206.27-206.37-206.27Z"/>
        <path class="cls-2" d="M4566.47,543.89c-27.19,0-48.39,21.19-48.39,48.28v157.98c0,60.17-49.52,109.7-109.7,109.7s-109.59-49.52-109.59-109.7v-157.98c0-27.09-22.44-48.28-48.39-48.28s-48.28,21.19-48.28,48.28v157.98c0,113.21,93.15,206.37,206.26,206.37,42.49,0,81.37-16.54,109.7-41.26v66.38c0,60.18-49.52,109.59-109.7,109.59-28.23,0-49.42,21.3-49.42,48.39s21.19,48.38,49.42,48.38c113.21,0,206.37-93.15,206.37-206.37v-389.47c0-27.09-22.44-48.28-48.28-48.28Z"/>
      </g>
      <g>
        <path class="cls-2" d="M1897.12,1059.05c-.57-5.51-3.1-9.42-7.58-11.6-4.48-2.18-8.96-2.18-13.55-.12-4.59,2.07-7.12,5.51-7.58,10.34l-21.02,91.54c-.34,1.03-.92,1.61-1.84,1.61-.8,0-1.49-.58-1.72-1.61l-21.48-91.54c-1.84-7.81-6.66-11.71-14.24-11.71-3.9,0-7.12,1.03-9.65,3.21-2.53,2.29-4.13,5.51-4.82,9.88l-14.24,96.94c-.34,2.3.11,4.37,1.38,5.97,1.26,1.61,3.1,2.53,5.4,2.53,3.91,0,5.97-1.84,6.43-5.51l13.67-97.75c.34-1.15.92-1.72,1.84-1.72.69,0,1.38.46,1.84,1.49l21.59,90.16c1.95,8.38,6.55,12.64,13.9,12.64s11.83-4.25,13.78-12.64l21.59-90.16c.46-1.03,1.15-1.49,1.95-1.49.92,0,1.49.57,1.72,1.72l13.55,97.75c.57,3.67,2.76,5.51,6.66,5.51,2.3,0,4.13-.92,5.4-2.53,1.26-1.6,1.72-3.67,1.38-6.08l-14.36-96.83Z"/>
        <path class="cls-2" d="M2002.33,1082.83c-5.63-5.17-13.78-7.69-24.24-7.69s-18.95,1.72-26.42,5.28c-2.87,1.37-4.36,3.44-4.36,6.31,0,2.3,1.03,4.02,2.87,5.05,1.84,1.03,4.14,1.15,6.78.12,7.81-2.87,14.36-4.37,19.75-4.37,7.12,0,12.29,1.61,15.74,4.59,3.33,3.11,5.05,7.93,5.05,14.59v6.77c-8.61-2.3-16.42-3.45-23.2-3.45-10.45,0-18.61,2.42-24.58,7.46-5.86,4.94-8.84,11.37-8.84,19.42,0,8.61,2.87,15.5,8.73,20.56,5.86,5.05,14.01,7.69,24.46,7.69,7.35,0,14.01-1.03,20.1-3.1,6.66-2.3,11.26-4.37,13.78-6.2,1.84-1.26,2.87-3.1,2.87-5.51v-44.22c0-10.34-2.87-18.15-8.5-23.31ZM1997.5,1146.8c-4.13,4.13-11.37,6.2-21.94,6.2-14.13,0-21.25-5.51-21.25-16.43,0-4.71,1.84-8.38,5.63-11.03,3.68-2.75,8.5-4.13,14.47-4.13s13.78,1.26,23.09,3.67v21.71Z"/>
        <path class="cls-2" d="M2088.24,1076.97c-3.91-1.26-8.73-1.83-14.36-1.83-8.61,0-15.39,2.29-19.98,7-4.71,4.59-7.12,11.14-7.12,19.41v55.94c0,1.83.69,3.44,1.95,4.82,1.38,1.26,2.99,1.95,4.82,1.95,1.95,0,3.56-.69,4.82-1.95,1.38-1.38,2.07-2.99,2.07-4.82v-54.44c0-9.88,4.48-14.82,13.44-14.93,2.41,0,4.94.23,7.47.57,2.53.46,4.36.69,5.63.69,1.95,0,3.56-.58,4.82-1.84,1.15-1.15,1.84-2.64,1.84-4.25,0-3.33-1.84-5.4-5.4-6.32Z"/>
        <path class="cls-2" d="M2185.75,1152.55l-33.19-33.77,32.73-31.36c1.26-1.38,1.95-2.99,1.95-4.82,0-1.72-.69-3.33-1.95-4.59-1.26-1.38-2.76-2.07-4.59-2.07-1.95,0-3.56.69-4.94,2.18l-31.01,30.55c-2.53,2.52-5.63,3.79-9.3,3.79h-2.87v-59.96c0-1.84-.69-3.45-1.95-4.82-1.38-1.26-2.99-1.96-4.82-1.96s-3.45.7-4.71,1.96c-1.26,1.37-1.95,2.98-1.95,4.82v104.86c0,1.84.69,3.45,2.07,4.82,1.26,1.38,2.87,2.07,4.59,2.07,1.95,0,3.68-.69,4.94-1.95,1.26-1.38,1.84-2.99,1.84-4.94v-31.82h2.99c3.45,0,6.55,1.38,9.19,4.02l31.7,32.51c1.26,1.37,2.76,2.07,4.82,2.18,1.95,0,3.56-.69,4.82-1.95,2.87-3.22,2.76-6.43-.34-9.76Z"/>
        <path class="cls-2" d="M2275.92,1085.24c-6.43-6.78-15.05-10.11-25.96-10.11-10.34,0-18.72,3.1-25.38,9.19-6.66,6.2-10.45,14.59-11.26,25.15-.57,6.2-.69,12.87-.23,19.98.57,10.91,4.13,19.64,10.91,26.08,6.66,6.43,15.62,9.65,26.76,9.65,11.71,0,20.44-1.84,26.42-5.4,2.41-1.37,3.68-3.44,3.68-5.97,0-2.18-.92-3.9-2.87-5.05-1.84-1.15-4.14-1.26-6.78-.23-8.27,2.87-15.05,4.36-20.21,4.36-7.58,0-13.55-2.18-18.03-6.66-4.48-4.36-6.78-10.22-6.78-17.8v-2.64h49.73c6.43,0,9.76-3.21,9.76-9.65v-4.94c0-10.57-3.33-19.18-9.76-25.95ZM2270.4,1114.53h-44.22c-.23-8.61,1.84-15.28,5.97-20.1,4.13-4.82,10.11-7.12,18.03-7.12,7.12,0,12.75,2.3,16.88,6.89,4.13,4.71,5.97,10.8,5.51,18.27-.11,1.37-.92,2.06-2.18,2.06Z"/>
        <path class="cls-2" d="M2363.78,1150.48c-1.61-1.14-3.68-1.49-6.2-.8-6.89,1.95-11.37,2.99-13.32,2.99-4.25,0-7.35-1.27-9.53-3.79-2.18-2.53-3.22-6.09-3.22-10.68v-46.74h25.04c1.61,0,3.1-.69,4.36-1.84,1.26-1.26,1.95-2.64,1.95-4.36,0-1.61-.69-3.1-1.95-4.25-1.26-1.26-2.76-1.84-4.36-1.84h-25.04v-13.67c0-1.83-.69-3.44-2.07-4.82-1.26-1.26-2.87-1.95-4.82-1.95-1.84,0-3.45.69-4.71,1.95-1.26,1.38-1.84,2.99-1.84,4.82v72.24c0,8.38,2.18,15.05,6.55,19.98,4.36,4.94,10.68,7.47,18.95,7.47,6.43,0,12.17-1.03,17.11-2.87,3.67-1.15,5.51-3.22,5.51-6.43,0-2.41-.8-4.13-2.41-5.4Z"/>
        <path class="cls-2" d="M2408.34,1048.72c-1.61-1.61-3.56-2.53-5.86-2.53s-4.25.92-5.86,2.53c-1.49,1.61-2.3,3.45-2.3,5.86s.8,4.25,2.3,5.97c1.61,1.61,3.56,2.41,5.86,2.41s4.25-.8,5.86-2.41c1.61-1.72,2.41-3.67,2.41-5.97,0-2.41-.8-4.25-2.41-5.86ZM2407.31,1078.35c-1.38-1.38-2.99-2.07-4.82-2.07s-3.45.69-4.71,2.07c-1.26,1.38-1.95,2.98-1.95,4.94v74.08c0,1.95.69,3.56,2.07,4.94,1.26,1.26,2.87,1.95,4.59,1.95,1.95,0,3.68-.69,4.94-1.95,1.26-1.38,1.84-2.99,1.84-4.94v-74.08c0-1.96-.57-3.56-1.95-4.94Z"/>
        <path class="cls-2" d="M2511.83,1083.86c-6.09-5.85-14.82-8.73-26.3-8.73-7.24,0-13.78.91-19.76,2.64-5.97,1.84-10.68,3.91-14.01,6.32-1.95,1.49-2.99,3.44-2.99,5.97v67.3c0,1.95.69,3.56,1.95,4.94,1.38,1.26,2.99,1.95,4.82,1.95,1.95,0,3.56-.69,4.82-1.95,1.26-1.38,1.84-2.99,1.84-4.94v-63.97c6.2-3.68,13.9-5.51,22.97-5.51,6.66,0,11.94,1.95,16.08,5.63,4.13,3.79,6.09,9.19,6.09,16.2v47.66c0,1.95.69,3.56,2.07,4.94,1.26,1.26,2.87,1.95,4.82,1.95s3.56-.69,4.82-1.95c1.15-1.38,1.84-2.99,1.84-4.94v-48.35c0-11.03-3.1-19.41-9.07-25.15Z"/>
        <path class="cls-2" d="M2625.42,1084.55c-2.64-1.84-7.24-3.91-13.78-6.09-6.43-2.18-12.86-3.33-19.41-3.33-10.8,0-19.3,2.98-25.61,9.07-6.43,5.97-9.88,14.24-10.57,24.58-.57,7-.57,14.01,0,21.02.69,10.22,4.02,18.38,9.99,24.23,6.09,5.86,14.13,8.73,24.35,8.73,8.38,0,16.54-1.84,24.46-5.63v1.72c0,7.01-2.3,12.64-6.89,16.89-4.48,4.25-10.22,6.31-17.11,6.31-6.2,0-12.4-1.72-18.61-5.28-2.87-1.84-5.17-2.64-7.12-2.64s-3.56.58-4.59,1.84c-1.15,1.26-1.72,2.75-1.72,4.36,0,2.3,1.95,4.59,5.86,7.23,7.47,4.59,16.2,6.89,26.19,6.89,11.49,0,20.56-3.33,27.22-10.22,6.78-6.78,10.22-16.2,10.22-28.26v-64.77c0-2.87-1.03-5.05-2.87-6.66ZM2614.86,1143.59c-1.95,1.72-5.05,3.33-9.42,4.71-4.36,1.38-8.96,2.07-13.67,2.07-13.9,0-21.25-7.12-22.28-21.48-.57-7.12-.57-13.55,0-19.18,1.26-14.59,9.07-21.82,23.2-21.82,3.56,0,7.12.57,10.8,1.49,3.68,1.03,6.43,1.95,8.38,2.87,1.95.92,2.99,1.38,2.99,1.61v49.73Z"/>
        <path class="cls-2" d="M2812.64,1154.5l-34.46-96.25c-2.87-8.5-8.5-12.64-17-12.64s-14.01,4.13-17.11,12.64l-34.46,96.25c-.23.69-.34,1.38-.34,2.3,0,2.06.57,3.67,1.84,5.05,1.15,1.26,2.76,1.95,4.71,1.95,3.1,0,5.28-1.49,6.55-4.36l12.29-34.69h52.95l12.29,34.69c1.26,2.87,3.33,4.36,6.43,4.36,2.07,0,3.68-.69,4.82-1.95,1.26-1.38,1.84-2.99,1.84-5.05,0-.92-.11-1.61-.34-2.3ZM2739.24,1111.77l17.69-49.62c.69-2.18,2.18-3.33,4.25-3.33s3.56,1.15,4.36,3.33l17.46,49.62h-43.76Z"/>
        <path class="cls-2" d="M2907.74,1084.55c-2.64-1.84-7.24-3.91-13.78-6.09-6.32-2.18-12.86-3.33-19.41-3.33-10.68,0-19.3,2.98-25.61,9.07-6.43,5.97-9.88,14.24-10.57,24.58-.57,7-.57,14.01,0,21.02.69,10.22,4.02,18.38,10.11,24.23,5.97,5.86,14.13,8.73,24.23,8.73,8.5,0,16.54-1.84,24.46-5.63v1.72c0,7.01-2.3,12.64-6.78,16.89-4.59,4.25-10.34,6.31-17.11,6.31-6.2,0-12.4-1.72-18.61-5.28-2.87-1.84-5.28-2.64-7.12-2.64-2.07,0-3.56.58-4.71,1.84-1.03,1.26-1.61,2.75-1.61,4.36,0,2.3,1.95,4.59,5.74,7.23,7.47,4.59,16.2,6.89,26.3,6.89,11.37,0,20.44-3.33,27.22-10.22,6.78-6.78,10.11-16.2,10.11-28.26v-64.77c0-2.87-.92-5.05-2.87-6.66ZM2897.17,1143.59c-1.95,1.72-5.05,3.33-9.42,4.71-4.36,1.38-8.96,2.07-13.67,2.07-13.9,0-21.25-7.12-22.28-21.48-.57-7.12-.57-13.55,0-19.18,1.38-14.59,9.07-21.82,23.32-21.82,3.45,0,7.12.57,10.8,1.49,3.56,1.03,6.43,1.95,8.38,2.87,1.84.92,2.87,1.38,2.87,1.61v49.73Z"/>
        <path class="cls-2" d="M3009.16,1085.24c-6.32-6.78-15.05-10.11-25.84-10.11s-18.72,3.1-25.38,9.19c-6.66,6.2-10.45,14.59-11.37,25.15-.46,6.2-.57,12.87-.11,19.98.57,10.91,4.13,19.64,10.91,26.08,6.66,6.43,15.62,9.65,26.76,9.65s20.44-1.84,26.42-5.4c2.41-1.37,3.68-3.44,3.68-5.97,0-2.18-.92-3.9-2.87-5.05-1.84-1.15-4.13-1.26-6.78-.23-8.27,2.87-15.05,4.36-20.21,4.36-7.58,0-13.55-2.18-18.03-6.66-4.48-4.36-6.78-10.22-6.78-17.8v-2.64h49.62c6.55,0,9.88-3.21,9.88-9.65v-4.94c0-10.57-3.33-19.18-9.88-25.95ZM3003.76,1114.53h-44.22c-.23-8.61,1.72-15.28,5.86-20.1,4.25-4.82,10.22-7.12,18.03-7.12,7.24,0,12.86,2.3,17,6.89,4.02,4.71,5.86,10.8,5.51,18.27-.11,1.37-.92,2.06-2.18,2.06Z"/>
        <path class="cls-2" d="M3115.17,1083.86c-5.97-5.85-14.82-8.73-26.3-8.73-7.24,0-13.78.91-19.75,2.64-5.97,1.84-10.68,3.91-13.9,6.32-2.07,1.49-2.99,3.44-2.99,5.97v67.3c0,1.95.57,3.56,1.95,4.94,1.26,1.26,2.87,1.95,4.82,1.95,1.84,0,3.45-.69,4.71-1.95,1.26-1.38,1.95-2.99,1.95-4.94v-63.97c6.2-3.68,13.78-5.51,22.86-5.51,6.66,0,12.06,1.95,16.08,5.63,4.13,3.79,6.2,9.19,6.2,16.2v47.66c0,1.95.69,3.56,1.95,4.94,1.38,1.26,2.99,1.95,4.82,1.95,2.07,0,3.68-.69,4.82-1.95,1.26-1.38,1.84-2.99,1.84-4.94v-48.35c0-11.03-2.99-19.41-9.07-25.15Z"/>
        <path class="cls-2" d="M3228.99,1135.78c-1.26-1.26-2.76-1.84-4.48-1.84-2.99,0-5.17,1.5-6.43,4.48-1.95,4.48-4.82,8.04-8.61,10.45-3.79,2.41-8.04,3.67-12.75,3.67-6.78,0-12.4-2.07-16.65-5.97-4.25-4.02-6.66-9.3-7.24-15.85-.46-8.27-.46-15.62,0-21.94.57-6.31,2.99-11.49,7.24-15.28,4.25-3.9,9.88-5.74,16.65-5.74,4.71,0,8.84,1.15,12.63,3.68,3.68,2.41,6.43,5.85,8.38,10.45,1.26,2.99,3.45,4.48,6.43,4.48,1.72,0,3.22-.69,4.48-1.95,1.26-1.27,1.84-2.87,1.84-4.94,0-4.82-3.1-10.11-9.3-15.73-6.09-5.74-14.24-8.61-24.58-8.61s-19.18,2.98-26.07,9.07c-7.01,6.2-10.68,14.13-11.14,23.78-.57,7.92-.57,15.73,0,23.54.46,9.42,4.13,17.46,11.14,24.12,6.89,6.31,15.51,9.53,26.07,9.53s18.49-2.87,24.69-8.5c6.32-5.63,9.53-11.03,9.53-15.96,0-1.96-.57-3.68-1.84-4.94Z"/>
        <path class="cls-2" d="M3331.56,1079.5c-1.26-2.07-3.22-2.99-5.74-2.99-3.1,0-5.4,1.72-6.66,5.28l-23.43,58.81c-.46.69-.92.69-1.38,0l-25.73-59.38c-1.49-3.21-3.68-4.71-6.32-4.71s-4.48.92-5.74,2.99c-1.38,1.95-1.49,4.13-.57,6.54l31.59,72.13c-4.02,11.49-10.45,19.88-19.3,25.04-2.07,1.15-3.1,3.1-3.1,5.86,0,1.83.69,3.33,1.95,4.48,1.38,1.27,2.87,1.84,4.71,1.84s3.79-.69,5.97-2.07c3.9-2.29,7.93-6.31,12.17-12.06,4.25-5.74,7.93-12.29,10.91-19.41l31.24-75.81c.92-2.29.8-4.48-.57-6.54Z"/>
      </g>
      <g>
        <path class="cls-2" d="M1306.27,530.34c-27.02,0-48.92,21.9-48.92,48.92s21.9,48.92,48.92,48.92c83.24,0,150.96,67.72,150.96,150.96,0,30.02-8.78,59.01-25.39,83.83-15.03,22.45-9,52.84,13.45,67.86,8.36,5.6,17.81,8.27,27.16,8.27,15.78,0,31.27-7.62,40.7-21.72,27.42-40.98,41.92-88.78,41.92-138.24,0-137.19-111.61-248.8-248.8-248.8Z"/>
        <path class="cls-2" d="M444.95,1087.59c-18.03,10.69-37.09,19.85-56.65,27.2-25.29,9.51-38.08,37.72-28.57,63,7.38,19.62,26.01,31.71,45.8,31.71,5.72,0,11.54-1.01,17.21-3.14,24.91-9.37,49.17-21.02,72.12-34.63,23.24-13.78,30.9-43.79,17.12-67.03-13.79-23.25-43.81-30.9-67.03-17.12Z"/>
        <path class="cls-2" d="M1165.08,1114.36c-134.2-46.76-224.37-173.72-224.37-315.93,0-13.44.8-26.96,2.39-40.2,3.21-26.83-15.93-51.18-42.76-54.39-26.87-3.27-51.18,15.93-54.38,42.76-2.05,17.08-3.08,34.52-3.08,51.83,0,183.78,116.55,347.87,290.02,408.32,5.33,1.86,10.76,2.73,16.1,2.73,20.23,0,39.16-12.65,46.19-32.84,8.89-25.51-4.59-53.4-30.1-62.29Z"/>
        <path class="cls-2" d="M647.78,327.78c-19.19,19.19-19.19,50.29,0,69.48,19.19,19.19,50.29,19.19,69.48,0,19.19-19.18,19.19-50.29,0-69.48-19.19-19.19-50.29-19.19-69.48,0Z"/>
        <path class="cls-2" d="M926.53,397.26c19.19-19.18,19.19-50.29,0-69.48-19.19-19.19-50.29-19.19-69.48,0-19.19,19.19-19.19,50.29,0,69.48,19.19,19.19,50.29,19.19,69.48,0Z"/>
        <path class="cls-2" d="M142.64,657.46c9.11,0,18.33-2.54,26.55-7.86,18.54-12.01,39.09-19.57,61.1-22.49,26.78-3.56,45.61-28.15,42.06-54.93-3.56-26.78-28.19-45.62-54.93-42.06-35.98,4.78-71.05,17.7-101.41,37.36-22.68,14.69-29.15,44.98-14.47,67.65,9.37,14.46,25.07,22.33,41.1,22.33Z"/>
        <circle class="cls-1" cx="575.65" cy="1039.83" r="49.13"/>
        <circle class="cls-4" cx="49.13" cy="709.03" r="49.13"/>
        <path class="cls-3" d="M1327.33,936.09c-19.19,19.19-19.19,50.29,0,69.48,19.18,19.19,50.29,19.19,69.48,0,19.19-19.19,19.19-50.29,0-69.48-19.19-19.19-50.29-19.19-69.48,0Z"/>
        <path class="cls-2" d="M670.45,580.43c27.01,0,48.9,21.89,48.9,48.9v148.35c0,54.28-9.31,107.32-27.92,157.88-7.24,19.75-25.95,32.05-45.91,32.05-7.03,0-14.16-1.55-20.99-4.75-23.22-10.91-32.85-38.9-24.17-63.04,14.04-39.06,21.17-80.08,21.17-122.13v-148.35c0-27.01,21.89-48.9,48.9-48.9h0Z"/>
        <path class="cls-2" d="M1273.12,978.46c-6.93,21.3-26.36,34.02-46.73,34.02-6.72,0-13.54-1.34-19.95-4.24-10.03-4.55-19.64-9.72-28.74-15.41-3.72-2.38-7.34-4.65-10.96-7.13-7.44-5.17-14.68-10.65-21.4-16.64-2.17-1.96-4.55-3.93-6.72-6-2.38-2.06-4.86-4.34-7.24-6.72-27.6-27.6-47.87-60.79-59.76-96.98-.93-2.79-1.86-5.79-2.69-8.58-.83-2.79-1.76-5.69-2.48-8.68-4.76-19.34-7.13-39.4-7.34-59.76v-42.08c0-16.24-2.38-31.33-7.13-44.77-18.71-52.94-55.93-98.33-107.53-131.1-23.37-14.89-29.78-46.21-13.85-69.27,15.3-22.02,46.42-26.26,68.86-11.68,12.92,8.27,25.12,17.16,36.6,26.78,23.26-46.01,33.5-97.4,29.57-150.33-10.65-139.99-125.41-252.79-265.61-261.47-6.1-.41-12.1-.52-17.99-.52-156.95,0-284.43,127.59-284.43,284.32v25.33c.1,2.17.41,4.34.21,6.62-.1,2.17-.21,4.24-.21,6.31-.1,3.31-.1,6.62,0,9.93v344.91c-.21,65.86-25.85,127.69-72.37,174.11-23.37,23.26-50.45,41.46-80.02,53.66-29.57,12.3-61.62,18.71-94.6,18.71h-.52c-65.96,0-128-25.64-174.63-72.27-24.61-24.71-43.42-53.66-55.83-85.92-12.3-32.05,11.17-68.96,50.87-66.58,18.71,1.03,33.91,14.79,40.74,32.36,10.96,28.02,29.98,51.7,56.14,69.69,13.13,9.2,28.02,15.92,43.53,19.95,53.87,13.65,107.32-1.44,144.64-38.77.62-.62,1.34-1.03,2.07-1.65,26.98-27.92,41.98-64.41,42.08-103.39v-393.09c.1-224.25,194.17-403.95,423.28-379.96,180.73,18.82,324.85,166.25,339.95,347.39,7.03,84.47-13.34,166.35-57.59,236.35v.1c16.23,23.88,29.26,49.52,38.77,76.82,8.58,24.09,12.92,50.15,12.92,77.44v41.98c0,9.82.93,19.64,2.79,29.05.52,2.07.83,4.03,1.45,6,.41,1.86.83,3.83,1.45,5.69,1.24,4.44,2.89,8.68,4.65,13.02,5.89,14.89,14.06,28.74,24.3,41.15,1.55,1.76,3,3.41,4.55,5.17,3.51,3.73,7.03,7.45,10.96,10.96,2.48,2.28,5.38,4.65,8.17,6.72,1.65,1.45,3.41,2.69,5.27,3.93.41.41.93.83,1.45,1.03,2.17,1.45,4.34,3,6.62,4.35.21.31.52.41.72.41,5.27,3.52,10.86,6.41,16.65,9.1,22.44,10.13,34.74,36.08,27.09,59.65Z"/>
      </g>
    </g>
  </g>
</svg>