<svg xmlns="http://www.w3.org/2000/svg" xmlns:xlink="http://www.w3.org/1999/xlink" width="50" height="50" viewBox="0 0 50 50">
  <defs>
    <clipPath id="clip-path">
      <rect id="seting" width="50" height="50" transform="translate(306 3075)" fill="#ffd41f"/>
    </clipPath>
  </defs>
  <g id="TEAM4" transform="translate(-306 -3075)" clip-path="url(#clip-path)">
    <g id="setings" transform="translate(306 3075)">
      <g id="Group_75" data-name="Group 75">
        <g id="Group_74" data-name="Group 74">
          <path id="Path_184" data-name="Path 184" d="M31.23,25.767c.12.064.24.127.383.215.474.27.916.546,1.347.845a.833.833,0,0,0,.947-1.371q-.707-.489-1.44-.9c-.146-.091-.3-.174-.458-.258-.545-.3-1.117-.571-1.7-.826a13.333,13.333,0,1,0-17.284,0A21.7,21.7,0,0,0,0,43.333v5.833a.833.833,0,1,0,1.667,0V43.333A20.025,20.025,0,0,1,14.611,24.626a13.218,13.218,0,0,0,14.111,0A19.8,19.8,0,0,1,31.23,25.767ZM10,13.333A11.667,11.667,0,1,1,21.667,25,11.68,11.68,0,0,1,10,13.333Z" fill="#ffd41f"/>
          <path id="Path_185" data-name="Path 185" d="M59.9,46.5l-2.131-.164a9.1,9.1,0,0,0-.687-1.654l1.392-1.624a.834.834,0,0,0-.044-1.132l-2.357-2.357a.832.832,0,0,0-1.131-.044l-1.624,1.392a9.086,9.086,0,0,0-1.654-.687L51.5,38.1a.833.833,0,0,0-.831-.769H47.333a.833.833,0,0,0-.831.769l-.164,2.131a9.089,9.089,0,0,0-1.654.687L43.06,39.529a.832.832,0,0,0-1.131.044l-2.357,2.357a.834.834,0,0,0-.044,1.132l1.392,1.624a9.094,9.094,0,0,0-.687,1.654L38.1,46.5a.833.833,0,0,0-.769.831v3.333a.833.833,0,0,0,.769.831l2.131.164a9.1,9.1,0,0,0,.687,1.654L39.528,54.94a.834.834,0,0,0,.044,1.132l2.357,2.357a.833.833,0,0,0,1.131.044l1.624-1.392a9.087,9.087,0,0,0,1.654.687L46.5,59.9a.833.833,0,0,0,.831.769h3.333A.833.833,0,0,0,51.5,59.9l.164-2.131a9.089,9.089,0,0,0,1.654-.687l1.624,1.392a.834.834,0,0,0,1.131-.044l2.357-2.357a.834.834,0,0,0,.044-1.132l-1.392-1.624a9.094,9.094,0,0,0,.687-1.654L59.9,51.5a.833.833,0,0,0,.769-.831V47.333A.833.833,0,0,0,59.9,46.5ZM59,49.895l-1.951.15a.834.834,0,0,0-.748.644,7.433,7.433,0,0,1-.946,2.279.833.833,0,0,0,.073.984L56.7,55.438,55.438,56.7l-1.487-1.274a.833.833,0,0,0-.984-.074,7.433,7.433,0,0,1-2.279.946.833.833,0,0,0-.644.748L49.9,59H48.1l-.15-1.95a.833.833,0,0,0-.644-.748,7.433,7.433,0,0,1-2.279-.946.833.833,0,0,0-.984.074L42.562,56.7,41.3,55.438l1.274-1.487a.833.833,0,0,0,.073-.984,7.433,7.433,0,0,1-.946-2.279.834.834,0,0,0-.748-.644L39,49.895v-1.79l1.951-.15a.834.834,0,0,0,.748-.644,7.433,7.433,0,0,1,.946-2.279.833.833,0,0,0-.073-.984L41.3,42.562,42.562,41.3l1.487,1.274a.834.834,0,0,0,.984.074,7.433,7.433,0,0,1,2.279-.946.833.833,0,0,0,.644-.748L48.1,39H49.9l.15,1.95a.833.833,0,0,0,.644.748,7.433,7.433,0,0,1,2.279.946.834.834,0,0,0,.984-.074L55.438,41.3,56.7,42.562l-1.274,1.487a.833.833,0,0,0-.073.984,7.433,7.433,0,0,1,.946,2.279.834.834,0,0,0,.748.644l1.951.15v1.79Z" transform="translate(-10.667 -10.667)" fill="#ffd41f"/>
          <path id="Path_186" data-name="Path 186" d="M51.667,46.667a5,5,0,1,0,5,5A5.006,5.006,0,0,0,51.667,46.667Zm0,8.333A3.333,3.333,0,1,1,55,51.667,3.337,3.337,0,0,1,51.667,55Z" transform="translate(-13.333 -13.333)" fill="#ffd41f"/>
        </g>
      </g>
    </g>
  </g>
</svg>
