<svg xmlns="http://www.w3.org/2000/svg" xmlns:xlink="http://www.w3.org/1999/xlink" width="50" height="50" viewBox="0 0 50 50">
  <defs>
    <clipPath id="clip-path">
      <rect id="results" width="50" height="50" transform="translate(306 3075)" fill="#ffd41f"/>
    </clipPath>
  </defs>
  <g id="TEAM3" transform="translate(-306 -3075)" clip-path="url(#clip-path)">
    <g id="results-2" data-name="results" transform="translate(306 3075)">
      <g id="Group_73" data-name="Group 73">
        <g id="Group_72" data-name="Group 72">
          <path id="Path_182" data-name="Path 182" d="M32.29,26.389a.834.834,0,0,0,.886-1.412,21.889,21.889,0,0,0-2.869-1.509,13.333,13.333,0,1,0-17.283,0A21.7,21.7,0,0,0,0,43.333v5.833a.833.833,0,1,0,1.667,0V43.333A20.024,20.024,0,0,1,14.611,24.626a13.218,13.218,0,0,0,14.115,0A20.2,20.2,0,0,1,32.29,26.389ZM10,13.333A11.667,11.667,0,1,1,21.667,25,11.68,11.68,0,0,1,10,13.333Z" fill="#ffd41f"/>
          <path id="Path_183" data-name="Path 183" d="M60.239,56.56l-4.52-4.52a9.171,9.171,0,1,0-3.679,3.678l4.521,4.521a2.6,2.6,0,0,0,3.678-3.678Zm-12.572-1.4a7.5,7.5,0,1,1,7.5-7.5A7.509,7.509,0,0,1,47.667,55.164Zm11.394,3.9a.935.935,0,0,1-1.322,0l-4.291-4.291a9.248,9.248,0,0,0,1.322-1.321l4.291,4.291a.937.937,0,0,1,0,1.322Z" transform="translate(-11 -10.999)" fill="#ffd41f"/>
        </g>
      </g>
    </g>
  </g>
</svg>
