<svg xmlns="http://www.w3.org/2000/svg" xmlns:xlink="http://www.w3.org/1999/xlink" width="52" height="39" viewBox="0 0 52 39">
  <defs>
    <clipPath id="clip-path">
      <rect id="team" width="52" height="39" rx="1" transform="translate(305 3080)" fill="#ffd41f"/>
    </clipPath>
  </defs>
  <g id="TEAM1" transform="translate(-305 -3080)" clip-path="url(#clip-path)">
    <g id="TEAM1-2" data-name="TEAM1" transform="translate(306 3081.25)">
      <g id="Group_69" data-name="Group 69" transform="translate(0 0)">
        <path id="Path_178" data-name="Path 178" d="M42.75,21.584A7.485,7.485,0,0,0,37.5,8.75a7.531,7.531,0,0,0-3.889,1.086.834.834,0,0,0,.861,1.427,5.834,5.834,0,0,1,8.861,4.986,5.8,5.8,0,0,1-2.657,4.886,5.864,5.864,0,0,1-4.789.721.833.833,0,1,0-.457,1.6,7.522,7.522,0,0,0,2.07.291,7.425,7.425,0,0,0,3.7-1,10.793,10.793,0,0,1,7.132,10.17v4.167h-7.6a15.845,15.845,0,0,0-9.2-12.75,9.167,9.167,0,1,0-13.068,0A16.056,16.056,0,0,0,13.8,27.554a15.747,15.747,0,0,0-4.544,9.53H1.667V32.917a10.791,10.791,0,0,1,3.171-7.659,10.95,10.95,0,0,1,3.969-2.506,7.431,7.431,0,0,0,3.694,1,7.522,7.522,0,0,0,2.07-.291.833.833,0,1,0-.457-1.6,5.862,5.862,0,0,1-4.793-.723A5.83,5.83,0,0,1,12.5,10.417a5.864,5.864,0,0,1,3.028.847.834.834,0,0,0,.861-1.427A7.5,7.5,0,0,0,5,16.25a7.45,7.45,0,0,0,2.245,5.33,12.694,12.694,0,0,0-3.586,2.5A12.452,12.452,0,0,0,0,32.917v5a.833.833,0,0,0,.833.833H9.167v6.667A.833.833,0,0,0,10,46.25H40a.833.833,0,0,0,.833-.833V38.75h8.333A.833.833,0,0,0,50,37.917v-5A12.454,12.454,0,0,0,42.75,21.584ZM17.5,17.917a7.5,7.5,0,1,1,7.5,7.5A7.508,7.508,0,0,1,17.5,17.917ZM39.167,44.583H10.833V38.75a14.1,14.1,0,0,1,4.146-10.018,14.312,14.312,0,0,1,4.945-3.189,9.137,9.137,0,0,0,10.16,0A14.172,14.172,0,0,1,39.167,38.75v5.833Z" transform="translate(0 -8.75)" fill="#ffd41f"/>
      </g>
    </g>
  </g>
</svg>
